<?xml version="1.0" standalone="no"?>
<!DOCTYPE svg PUBLIC "-//W3C//DTD SVG 20010904//EN"
 "http://www.w3.org/TR/2001/REC-SVG-20010904/DTD/svg10.dtd">
<svg version="1.0" xmlns="http://www.w3.org/2000/svg"
 width="700.000000pt" height="700.000000pt" viewBox="0 0 700.000000 700.000000"
 preserveAspectRatio="xMidYMid meet">
<metadata>
Created by potrace 1.11, written by Peter Selinger 2001-2013
</metadata>
<g transform="translate(0.000000,700.000000) scale(0.100000,-0.100000)"
fill="#000000" stroke="none">
<path d="M0 5288 c0 -979 4 -1719 9 -1727 10 -15 41 -8 41 9 0 6 -5 8 -11 4
-18 -11 7 30 28 47 17 13 17 13 1 -7 -27 -31 -22 -41 7 -14 13 12 22 27 19 31
-6 11 206 220 217 213 5 -3 9 5 10 18 0 14 3 17 6 9 4 -11 10 -8 25 10 14 18
17 19 10 4 -6 -11 -23 -31 -38 -45 -15 -14 -24 -19 -20 -12 4 6 6 12 4 12 -6
0 -198 -191 -198 -197 0 -3 10 2 23 13 12 10 6 1 -14 -21 -20 -22 -35 -47 -32
-55 4 -12 3 -13 -5 -1 -8 11 -12 10 -22 -8 -6 -12 -22 -26 -36 -31 -13 -5 -24
-16 -24 -24 0 -28 22 -28 47 0 l25 29 -22 -32 c-12 -18 -28 -33 -36 -33 -21 0
-17 -18 5 -25 11 -3 25 -13 33 -22 11 -15 10 -14 -13 1 -25 16 -27 16 -33 0
-5 -12 4 -26 31 -48 20 -17 40 -31 43 -31 21 -2 50 -18 50 -28 0 -8 -3 -8 -12
1 -7 7 -17 12 -22 12 -6 0 39 -48 100 -107 61 -60 79 -78 40 -41 -99 94 -108
85 -11 -11 43 -44 82 -78 85 -76 4 3 14 -3 21 -13 11 -13 13 -48 9 -167 l-6
-150 -2 145 -2 145 -94 94 c-52 52 -93 98 -91 101 2 4 -18 29 -45 55 -29 29
-50 43 -50 35 -1 -11 -3 -11 -11 3 -5 9 -17 17 -24 17 -13 0 -15 -220 -15
-1686 l0 -1685 1613 4 c886 3 1643 6 1682 7 50 2 73 7 82 19 11 14 14 14 23 1
5 -8 11 -19 14 -25 2 -6 8 -6 16 2 10 9 1 23 -40 67 -29 31 -50 56 -47 56 4 0
26 -21 49 -47 80 -87 72 -83 148 -83 58 0 70 3 70 16 0 9 11 29 25 46 30 35
34 109 9 148 l-16 25 21 -24 c31 -35 29 -110 -4 -149 -14 -17 -25 -38 -25 -48
0 -17 3 -16 23 6 12 14 19 21 15 16 -11 -14 -10 -36 1 -36 11 0 59 100 71 145
7 25 8 26 9 7 1 -12 -10 -45 -24 -72 -14 -27 -25 -56 -25 -65 0 -14 156 -15
1515 -15 844 0 1516 4 1519 9 3 5 -1 14 -9 21 -12 10 -15 10 -15 -1 -1 -12
-24 17 -25 31 -1 13 -17 30 -25 25 -4 -3 -34 21 -66 52 -40 38 -48 49 -24 32
19 -13 42 -23 50 -21 13 3 13 2 0 -8 -13 -9 -11 -13 9 -29 14 -10 30 -17 35
-16 6 2 29 -18 51 -45 22 -27 43 -49 48 -49 11 -1 8 21 -5 39 -7 9 -2 5 11 -9
21 -22 35 -26 98 -29 65 -4 73 -2 73 14 0 17 1 16 15 -2 10 -13 14 -14 15 -5
0 10 3 11 14 2 10 -8 16 -9 21 -1 3 5 -1 13 -10 16 -13 6 -14 8 -3 15 11 7 10
11 -2 19 -13 8 -12 10 4 10 16 0 18 7 14 71 -3 54 -8 74 -22 84 -25 19 -126
117 -226 221 -47 49 -14 20 72 -65 93 -91 161 -150 168 -146 8 5 6 13 -6 26
-17 19 -17 20 2 13 16 -6 15 -3 -6 22 -14 15 -18 23 -9 16 15 -11 17 -5 18 60
6 213 11 2959 6 2968 -4 6 -23 0 -49 -15 -24 -14 -48 -25 -55 -25 -7 0 13 14
45 31 71 37 72 38 54 49 -10 7 -11 10 -2 10 8 0 12 20 12 65 l0 65 -137 136
-138 137 128 -122 c70 -67 132 -119 138 -115 7 4 2 16 -13 32 -13 15 -15 20
-5 13 9 -8 21 -11 24 -7 4 4 1 11 -7 16 -10 7 -11 10 -2 10 9 0 12 345 12
1690 l0 1690 -1655 0 c-1069 0 -1655 -3 -1655 -10 0 -6 -9 -6 -26 0 -18 7 -31
7 -39 0 -9 -8 -14 -7 -17 2 -4 11 -8 11 -20 0 -11 -9 -18 -10 -23 -2 -3 5 -21
10 -40 10 -25 0 -43 -9 -66 -32 -18 -18 -25 -24 -16 -12 20 25 24 52 5 36 -8
-5 -22 -6 -33 -1 -32 13 -62 10 -79 -7 -15 -14 -16 -14 -16 0 0 15 -158 16
-1660 16 l-1660 0 0 -1712z m3408 1661 c-16 -11 -28 -25 -28 -31 0 -6 10 -3
23 8 12 10 2 -3 -22 -29 -25 -25 -47 -44 -50 -42 -2 3 -21 -9 -40 -27 -35 -33
-35 -33 4 12 55 63 123 130 132 130 4 0 -4 -10 -19 -21z m197 11 c3 -5 11 -10
16 -10 6 0 8 4 5 8 -3 5 9 6 27 3 l32 -6 -29 -3 -28 -4 23 -26 24 -27 -25 21
c-14 11 -36 28 -50 37 -13 10 -19 17 -13 17 7 0 15 -4 18 -10z m-1458 -6 c-3
-3 -12 -4 -19 -1 -8 3 -5 6 6 6 11 1 17 -2 13 -5z m70 0 c-3 -3 -12 -4 -19 -1
-8 3 -5 6 6 6 11 1 17 -2 13 -5z m76 -1 c-7 -2 -19 -2 -25 0 -7 3 -2 5 12 5
14 0 19 -2 13 -5z m164 1 c-3 -3 -12 -4 -19 -1 -8 3 -5 6 6 6 11 1 17 -2 13
-5z m656 -1 c-111 -2 -295 -2 -410 0 -114 1 -23 2 202 2 226 0 319 -1 208 -2z
m730 -10 c-29 -2 -77 -2 -105 0 -29 2 -6 3 52 3 58 0 81 -1 53 -3z m-388 -20
c-16 -9 -49 -37 -73 -62 l-44 -46 42 50 c40 48 74 74 95 74 6 0 -3 -7 -20 -16z
m159 -5 c17 -11 44 -37 60 -57 25 -31 22 -29 -20 10 -27 26 -58 51 -69 57 -11
6 -16 12 -11 12 6 0 24 -10 40 -22z m110 -37 c-5 -6 -34 20 -34 30 0 5 8 1 18
-8 10 -10 17 -20 16 -22z m81 -121 c73 -78 77 -83 22 -30 -38 36 -87 88 -110
115 -47 57 -35 46 88 -85z m-57 85 c-3 -3 -9 2 -12 12 -6 14 -5 15 5 6 7 -7
10 -15 7 -18z m-418 -8 c0 -1 -42 -43 -92 -92 -51 -50 -68 -64 -38 -32 30 31
50 57 44 57 -14 0 -116 -105 -109 -112 7 -6 -48 -48 -62 -48 -4 0 7 10 26 22
19 12 29 24 24 25 -6 2 20 33 58 69 38 36 73 63 78 60 4 -3 21 8 36 24 27 28
35 34 35 27z m474 -46 c-3 -3 -15 6 -27 18 l-22 24 27 -19 c14 -10 24 -21 22
-23z m85 -148 c2 -2 2 -5 0 -8 -3 -2 -48 39 -100 93 l-94 97 95 -90 c52 -50
96 -91 99 -92z m-619 91 c-41 -41 -93 -90 -115 -107 -22 -17 10 16 70 75 61
59 112 107 115 108 2 0 -29 -34 -70 -76z m570 31 c19 -22 8 -25 -12 -3 -10 10
-14 18 -9 18 5 0 14 -7 21 -15z m41 -42 c13 -16 12 -17 -3 -4 -10 7 -18 15
-18 17 0 8 8 3 21 -13z m59 -56 c12 -4 11 -6 -3 -6 -12 -1 -16 -5 -11 -13 5
-9 2 -8 -9 1 -10 8 -15 16 -12 19 3 3 -1 12 -7 21 -11 14 -10 14 7 0 11 -9 27
-19 35 -22z m-1157 -14 c-7 -2 -19 -2 -25 0 -7 3 -2 5 12 5 14 0 19 -2 13 -5z
m250 0 c-40 -2 -106 -2 -145 0 -40 1 -8 3 72 3 80 0 112 -2 73 -3z m1130 0
c-35 -2 -91 -2 -125 0 -35 2 -7 3 62 3 69 0 97 -1 63 -3z m-3803 -43 c-5 -22
-8 -27 -9 -13 -1 21 9 56 14 51 2 -2 0 -19 -5 -38z m6188 33 c-32 -2 -84 -2
-115 0 -32 2 -6 3 57 3 63 0 89 -1 58 -3z m-2559 -29 c14 -12 -19 -1 -35 12
-18 14 -18 14 6 3 14 -6 27 -13 29 -15z m2676 16 c3 -6 -1 -7 -9 -4 -18 7 -21
14 -7 14 6 0 13 -4 16 -10z m-2744 -17 c13 -16 12 -17 -3 -4 -10 7 -18 15 -18
17 0 8 8 3 21 -13z m-873 -10 c-10 -2 -26 -2 -35 0 -10 3 -2 5 17 5 19 0 27
-2 18 -5z m1020 0 c-10 -2 -28 -2 -40 0 -13 2 -5 4 17 4 22 1 32 -1 23 -4z
m-1695 -10 c-298 -2 -788 -2 -1090 0 -301 1 -58 2 542 2 600 0 846 -1 548 -2z
m737 4 c0 -2 -12 -14 -27 -28 l-28 -24 24 28 c23 25 31 32 31 24z m851 -14
c13 -16 12 -17 -3 -4 -10 7 -18 15 -18 17 0 8 8 3 21 -13z m1917 10 c-311 -2
-824 -2 -1140 0 -315 1 -60 2 567 2 627 0 885 -1 573 -2z m-5450 -10 c-14 -3
-18 -16 -20 -56 l-1 -52 -4 44 c-5 53 1 71 24 70 17 -1 17 -2 1 -6z m6249
-720 c-1 -136 -2 -27 -2 242 0 270 1 381 2 248 2 -133 2 -353 0 -490z m-3199
672 c-20 -13 -38 -28 -40 -32 -2 -5 -17 -19 -34 -33 -17 -14 -4 1 28 33 32 31
64 57 71 57 6 0 -5 -11 -25 -25z m122 -17 c0 -13 -5 -9 -31 19 l-24 26 27 -19
c15 -10 28 -22 28 -26z m942 -508 c-2 -2 -125 119 -275 270 l-272 275 275
-270 c151 -149 274 -272 272 -275z m-1512 517 c0 -1 -476 -477 -1057 -1057
l-1058 -1055 1055 1058 c580 581 1056 1057 1057 1057 2 0 3 -1 3 -3z m409 -72
c-40 -41 -75 -75 -77 -75 -9 0 64 83 100 115 66 55 57 41 -23 -40z m159 10 c3
3 -5 17 -19 33 -13 15 -4 9 19 -13 53 -48 87 -94 70 -91 -20 3 -55 25 -40 26
6 0 12 5 12 11 0 6 -6 9 -12 6 -7 -3 -33 14 -56 37 l-44 41 -84 -89 -84 -88 0
-909 0 -909 93 -2 92 -2 -100 -6 c-55 -3 -109 -10 -120 -14 -18 -8 -18 -7 2 8
20 15 21 25 21 124 0 59 1 468 1 908 l1 802 91 96 92 97 30 -36 c16 -20 32
-34 35 -30z m53 8 l34 -37 -32 25 c-26 20 -50 49 -40 49 2 0 19 -17 38 -37z
m-3304 -1165 c-1 -211 -2 -39 -2 382 0 421 1 593 2 383 2 -211 2 -555 0 -765z
m3691 753 c3 -10 -316 314 -343 348 -11 13 61 -58 160 -158 99 -101 181 -186
183 -190z m-708 315 c0 -2 -8 -10 -17 -17 -16 -13 -17 -12 -4 4 13 16 21 21
21 13z m337 -58 c-2 -13 -4 -3 -4 22 0 25 2 35 4 23 2 -13 2 -33 0 -45z m-320
27 c-7 -13 -14 -20 -15 -14 -2 5 2 16 8 24 18 21 20 18 7 -10z m361 -26 c-3
-20 -5 -19 -9 9 -3 20 -2 29 4 23 5 -5 7 -19 5 -32z m-583 -161 c-99 -101
-182 -182 -185 -180 -4 3 352 362 360 362 2 0 -76 -82 -175 -182z m202 75 c-2
-16 -4 -3 -4 27 0 30 2 43 4 28 2 -16 2 -40 0 -55z m3320 -45 c-3 -7 -5 -2 -5
12 0 14 2 19 5 13 2 -7 2 -19 0 -25z m-2967 -836 c0 -777 2 -832 18 -841 9 -6
12 -11 5 -11 -6 0 -15 5 -18 10 -3 6 -15 10 -26 10 -18 0 -18 2 -6 14 15 15
15 22 16 1210 1 247 3 447 6 444 3 -2 5 -379 5 -836z m37 -390 c-1 -224 -2
-40 -2 408 0 448 1 632 2 408 2 -225 2 -591 0 -816z m2930 1076 c-3 -8 -6 -5
-6 6 -1 11 2 17 5 13 3 -3 4 -12 1 -19z m-2222 -368 l370 -375 -372 370 c-205
203 -373 374 -373 379 0 5 1 7 3 5 1 -3 169 -173 372 -379z m146 313 c13 -16
12 -17 -3 -4 -17 13 -22 21 -14 21 2 0 10 -8 17 -17z m-1254 -35 c-3 -8 -6 -5
-6 6 -1 11 2 17 5 13 3 -3 4 -12 1 -19z m1291 -3 c-3 -3 -9 2 -12 12 -6 14 -5
15 5 6 7 -7 10 -15 7 -18z m2039 3 c-3 -8 -6 -5 -6 6 -1 11 2 17 5 13 3 -3 4
-12 1 -19z m-3737 -12 c0 -2 -7 -7 -16 -10 -8 -3 -12 -2 -9 4 6 10 25 14 25 6z
m1733 -16 c9 -11 13 -20 7 -20 -5 0 -14 9 -20 20 -6 11 -9 20 -8 20 2 0 11 -9
21 -20z m-1802 -53 l-24 -22 19 27 c10 14 21 24 23 22 3 -3 -6 -15 -18 -27z
m476 1 c-3 -7 -5 -2 -5 12 0 14 2 19 5 13 2 -7 2 -19 0 -25z m3330 -80 c-2
-18 -4 -6 -4 27 0 33 2 48 4 33 2 -15 2 -42 0 -60z m-1918 38 c-3 -3 -11 5
-18 17 -13 21 -12 21 5 5 10 -10 16 -20 13 -22z m-1929 -1 c-7 -8 -16 -15 -21
-15 -5 0 -1 8 9 18 20 22 31 19 12 -3z m-30 -28 c0 -1 -278 -279 -617 -617
l-618 -615 615 618 c572 574 620 621 620 614z m2031 -34 l24 -28 -30 25 c-16
14 -32 26 -34 28 -2 1 0 2 6 2 5 0 20 -12 34 -27z m1846 -50 c-3 -10 -5 -4 -5
12 0 17 2 24 5 18 2 -7 2 -21 0 -30z m-3330 5 c-3 -8 -6 -5 -6 6 -1 11 2 17 5
13 3 -3 4 -12 1 -19z m1788 -267 c-3 -2 -6 -2 -7 0 -2 3 -64 68 -138 144
l-135 140 142 -140 c78 -76 140 -141 138 -144z m-1788 227 c-3 -8 -6 -5 -6 6
-1 11 2 17 5 13 3 -3 4 -12 1 -19z m3330 -1206 c-1 -224 -2 -40 -2 408 0 448
1 632 2 408 2 -225 2 -591 0 -816z m30 1061 c-2 -16 -4 -3 -4 27 0 30 2 43 4
28 2 -16 2 -40 0 -55z m-3360 15 c-3 -8 -6 -5 -6 6 -1 11 2 17 5 13 3 -3 4
-12 1 -19z m0 -80 c-3 -7 -5 -2 -5 12 0 14 2 19 5 13 2 -7 2 -19 0 -25z m3360
-60 c-2 -13 -4 -3 -4 22 0 25 2 35 4 23 2 -13 2 -33 0 -45z m-1539 7 c-3 -3
-9 2 -12 12 -6 14 -5 15 5 6 7 -7 10 -15 7 -18z m-1821 -32 c-3 -10 -5 -4 -5
12 0 17 2 24 5 18 2 -7 2 -21 0 -30z m2148 -292 c-3 -2 -6 -2 -7 0 -2 3 -73
77 -158 164 l-155 160 162 -160 c89 -87 160 -161 158 -164z m1212 267 c-3 -8
-6 -5 -6 6 -1 11 2 17 5 13 3 -3 4 -12 1 -19z m-3360 -616 c-1 -114 -2 -20 -2
208 0 228 1 322 2 208 2 -115 2 -301 0 -416z m3360 566 c-3 -7 -5 -2 -5 12 0
14 2 19 5 13 2 -7 2 -19 0 -25z m-1856 -35 c13 -17 13 -17 -6 -3 -11 8 -22 16
-24 17 -2 2 0 3 6 3 6 0 17 -8 24 -17z m1856 -45 c-3 -7 -5 -2 -5 12 0 14 2
19 5 13 2 -7 2 -19 0 -25z m-1809 -13 c-3 -3 -9 2 -12 12 -6 14 -5 15 5 6 7
-7 10 -15 7 -18z m72 -61 c0 -2 -9 0 -20 6 -11 6 -20 13 -20 16 0 2 9 0 20 -6
11 -6 20 -13 20 -16z m1737 -6 c-3 -7 -5 -2 -5 12 0 14 2 19 5 13 2 -7 2 -19
0 -25z m-1676 -65 c13 -16 12 -17 -3 -4 -10 7 -18 15 -18 17 0 8 8 3 21 -13z
m1676 -5 c-3 -8 -6 -5 -6 6 -1 11 2 17 5 13 3 -3 4 -12 1 -19z m-1161 -30 l29
-33 -32 29 c-18 17 -33 31 -33 33 0 8 8 1 36 -29z m-424 -57 c-3 -6 -72 61
-72 70 0 4 17 -9 38 -30 20 -20 36 -38 34 -40z m1585 37 c-3 -7 -5 -2 -5 12 0
14 2 19 5 13 2 -7 2 -19 0 -25z m-1088 -62 c-2 -2 -13 8 -23 22 l-19 27 24
-22 c12 -12 21 -24 18 -27z m1088 -8 c-3 -8 -6 -5 -6 6 -1 11 2 17 5 13 3 -3
4 -12 1 -19z m-1522 -28 l20 -25 -22 19 c-13 11 -23 24 -23 29 0 6 1 8 3 6 1
-2 11 -15 22 -29z m470 2 c-3 -3 -11 0 -18 7 -9 10 -8 11 6 5 10 -3 15 -9 12
-12z m33 -37 c-3 -3 -9 2 -12 12 -6 14 -5 15 5 6 7 -7 10 -15 7 -18z m1019 -7
c-3 -8 -6 -5 -6 6 -1 11 2 17 5 13 3 -3 4 -12 1 -19z m-6330 -10 c-3 -8 -6 -5
-6 6 -1 11 2 17 5 13 3 -3 4 -12 1 -19z m5158 -298 c176 -176 318 -320 315
-320 -3 0 -149 144 -325 320 -176 176 -318 320 -315 320 3 0 149 -144 325
-320z m200 272 c-3 -3 -11 0 -18 7 -9 10 -8 11 6 5 10 -3 15 -9 12 -12z
m-5358 -29 c-3 -10 -5 -4 -5 12 0 17 2 24 5 18 2 -7 2 -21 0 -30z m6330 -35
c-3 -7 -5 -2 -5 12 0 14 2 19 5 13 2 -7 2 -19 0 -25z m-883 -24 c3 -8 2 -12
-4 -9 -6 3 -10 10 -10 16 0 14 7 11 14 -7z m883 -46 c-3 -8 -6 -5 -6 6 -1 11
2 17 5 13 3 -3 4 -12 1 -19z m-813 -27 c-5 -6 -34 20 -34 30 0 5 8 1 18 -8 10
-10 17 -20 16 -22z m813 -43 c-3 -8 -6 -5 -6 6 -1 11 2 17 5 13 3 -3 4 -12 1
-19z m-457 -313 c179 -179 323 -325 320 -325 -3 0 -151 146 -330 325 -179 179
-323 325 -320 325 3 0 151 -146 330 -325z m457 213 c-3 -7 -5 -2 -5 12 0 14 2
19 5 13 2 -7 2 -19 0 -25z m-5207 -53 c-36 -36 -67 -65 -71 -65 -3 0 24 30 60
68 36 37 68 66 70 64 3 -1 -24 -32 -59 -67z m2320 6 c17 -7 20 -10 8 -10 -10
-1 -30 11 -46 27 -15 15 -19 19 -7 10 11 -9 31 -21 45 -27z m-499 9 c-13 -11
-31 -20 -40 -20 -9 0 0 8 19 19 46 24 50 24 21 1z m3386 -32 c-3 -8 -6 -5 -6
6 -1 11 2 17 5 13 3 -3 4 -12 1 -19z m-3427 2 c20 -6 21 -8 5 -8 -11 0 -29 3
-40 8 -25 11 1 11 35 0z m597 4 c-3 -3 -12 -4 -19 -1 -8 3 -5 6 6 6 11 1 17
-2 13 -5z m-660 -10 c-3 -3 -12 -4 -19 -1 -8 3 -5 6 6 6 11 1 17 -2 13 -5z
m620 0 c-3 -3 -12 -4 -19 -1 -8 3 -5 6 6 6 11 1 17 -2 13 -5z m68 -4 c-11 -5
-29 -8 -40 -8 -16 0 -15 2 5 8 34 11 60 11 35 0z m-755 -20 c-19 -11 -39 -19
-45 -19 -5 0 6 8 25 19 19 11 40 19 45 19 6 0 -6 -8 -25 -19z m854 -10 c36
-17 66 -33 66 -35 0 -3 -9 -1 -20 5 -12 6 -28 9 -38 6 -9 -3 -24 -1 -32 4 -13
9 -13 10 0 10 8 1 -1 9 -20 20 -53 29 -31 24 44 -10z m-787 14 c-3 -3 -12 -4
-19 -1 -8 3 -5 6 6 6 11 1 17 -2 13 -5z m713 -4 c8 -5 11 -10 5 -10 -5 0 -17
5 -25 10 -8 5 -10 10 -5 10 6 0 17 -5 25 -10z m2777 -12 c-3 -8 -6 -5 -6 6 -1
11 2 17 5 13 3 -3 4 -12 1 -19z m-3532 2 c-3 -5 -12 -10 -18 -10 -7 0 -6 4 3
10 19 12 23 12 15 0z m-94 -17 c-8 -3 -9 -8 -3 -12 6 -3 -6 -17 -26 -29 l-37
-23 30 25 c39 33 19 34 -25 1 -34 -25 -40 -28 -40 -21 0 8 93 66 104 65 6 0 5
-3 -3 -6z m-1661 -7 c0 -2 -7 -7 -16 -10 -8 -3 -12 -2 -9 4 6 10 25 14 25 6z
m5287 -28 c-3 -7 -5 -2 -5 12 0 14 2 19 5 13 2 -7 2 -19 0 -25z m-6027 -245
c-146 -148 -267 -270 -269 -273 -3 -3 5 9 18 25 31 41 494 512 505 513 6 1
-109 -118 -254 -265z m3406 226 c3 -6 -5 -3 -20 6 -14 10 -26 19 -26 22 0 7
39 -17 46 -28z m50 -10 c-1 -4 8 -17 19 -30 l20 -23 -26 20 c-16 11 -22 22
-17 25 6 4 2 10 -10 13 -11 4 -26 14 -33 23 -10 12 -6 11 17 -3 17 -11 31 -22
30 -25z m-2788 -11 c-24 -24 -45 -42 -48 -40 -5 4 76 82 85 82 3 0 -14 -19
-37 -42z m-921 -250 c-1 -51 -3 -10 -3 92 0 102 2 143 3 93 2 -51 2 -135 0
-185z m2543 258 c0 -2 -12 -11 -27 -20 l-28 -17 24 20 c23 21 31 25 31 17z
m40 -1 c0 -2 -10 -9 -22 -15 -22 -11 -22 -10 -4 4 21 17 26 19 26 11z m1215
-63 c-3 -3 5 -17 17 -31 19 -22 18 -21 -9 3 -18 16 -29 34 -26 39 4 7 -1 8
-13 3 -10 -4 -15 -4 -11 0 4 4 -1 16 -10 28 -11 12 -4 9 20 -9 21 -15 35 -30
32 -33z m2482 11 c-3 -10 -5 -4 -5 12 0 17 2 24 5 18 2 -7 2 -21 0 -30z
m-3782 -6 c-22 -17 -70 -61 -107 -96 -38 -35 -68 -61 -68 -56 0 5 -12 -2 -27
-16 l-28 -24 24 27 c13 15 27 25 31 23 4 -2 22 12 41 32 38 40 160 143 168
143 4 -1 -12 -15 -34 -33z m-16 20 c-2 -1 -40 -36 -84 -77 l-80 -74 76 77 c42
42 80 77 84 77 5 0 6 -1 4 -3z m-1619 -20 c0 -1 -127 -128 -282 -282 l-283
-280 280 283 c260 262 285 287 285 279z m3024 -76 c48 -49 64 -70 53 -74 -9
-3 -30 11 -53 36 l-39 42 43 -40 c23 -21 42 -35 42 -29 0 14 -75 85 -83 79 -4
-3 -5 -2 -2 2 3 3 -5 17 -17 30 -12 13 -19 23 -17 23 3 0 35 -31 73 -69z
m1571 10 c-6 -5 -25 10 -25 20 0 5 6 4 14 -3 8 -7 12 -15 11 -17z m822 -3 c-3
-8 -6 -5 -6 6 -1 11 2 17 5 13 3 -3 4 -12 1 -19z m-787 -30 c0 -6 -6 -5 -15 2
-8 7 -15 14 -15 16 0 2 7 1 15 -2 8 -4 15 -11 15 -16z m-2337 -5 c-13 -2 -33
-2 -45 0 -13 2 -3 4 22 4 25 0 35 -2 23 -4z m-54 -19 c9 -8 -75 -2 -94 6 -12
5 1 6 35 3 30 -3 57 -7 59 -9z m161 6 c-14 -4 -47 -8 -75 -8 l-50 1 40 7 c22
4 56 7 75 8 31 0 32 -1 10 -8z m57 -6 c-3 -3 -12 -4 -19 -1 -8 3 -5 6 6 6 11
1 17 -2 13 -5z m2217 -23 c-2 -3 -12 3 -22 13 -16 17 -16 18 5 5 12 -7 20 -15
17 -18z m743 -3 c-3 -7 -5 -2 -5 12 0 14 2 19 5 13 2 -7 2 -19 0 -25z m-3377
7 c-21 -12 -22 -14 -6 -15 11 0 17 -2 14 -5 -3 -4 -18 -3 -33 1 l-28 7 29 13
c39 17 55 17 24 -1z m97 9 c-3 -3 -12 -4 -19 -1 -8 3 -5 6 6 6 11 1 17 -2 13
-5z m280 0 c-3 -3 -12 -4 -19 -1 -8 3 -5 6 6 6 11 1 17 -2 13 -5z m83 -4 c8
-5 11 -10 5 -10 -5 0 -17 5 -25 10 -8 5 -10 10 -5 10 6 0 17 -5 25 -10z m-5
-20 c13 -6 15 -9 5 -9 -8 0 -22 4 -30 9 -18 12 -2 12 25 0z m53 1 c11 -6 10
-10 -4 -15 -9 -3 -19 -4 -22 -1 -3 3 1 5 9 5 11 0 11 2 -1 10 -8 5 -10 10 -5
10 6 0 16 -4 23 -9z m-577 -8 c-11 -5 -11 -7 0 -15 10 -6 7 -7 -10 -3 -16 5
-21 4 -17 -4 5 -7 1 -8 -10 -4 -10 4 -15 2 -11 -3 3 -6 3 -15 -1 -21 -10 -15
-76 -47 -67 -33 5 8 3 11 -4 9 -7 -3 -11 -8 -9 -11 4 -10 -133 -147 -145 -145
-5 1 -12 -4 -15 -12 -3 -9 0 -11 8 -6 16 10 -20 -53 -40 -68 -8 -7 -4 2 8 20
28 40 28 51 0 27 -16 -14 -15 -10 7 19 15 21 30 35 33 32 7 -7 82 66 82 79 0
6 -18 -8 -40 -29 -22 -21 -40 -37 -40 -34 0 3 23 27 52 54 29 28 46 42 39 33
-16 -22 1 -24 19 -3 7 8 9 15 5 15 -11 0 16 30 38 42 14 7 17 7 13 -1 -10 -16
6 -14 32 5 12 8 20 19 17 24 -6 9 42 40 60 39 6 0 4 -3 -4 -6z m1144 -13 c10
-11 16 -20 13 -20 -3 0 -13 9 -23 20 -10 11 -16 20 -13 20 3 0 13 -9 23 -20z
m1609 -19 c-3 -3 -15 6 -27 18 l-22 24 27 -19 c14 -10 24 -21 22 -23z m-3285
2 c-13 -16 -27 -32 -32 -38 -5 -6 -5 -1 -2 10 6 19 5 19 -7 1 -30 -43 -47 -58
-24 -21 13 22 29 39 34 38 5 -1 18 7 27 17 10 11 20 20 23 20 3 0 -5 -12 -19
-27z m1156 9 c0 -12 34 -41 49 -42 5 0 2 7 -5 17 -9 10 2 6 26 -9 22 -14 40
-29 40 -34 0 -15 15 -34 27 -34 7 0 6 6 -2 15 -29 35 0 11 50 -42 30 -32 45
-49 33 -39 -13 11 -23 16 -23 12 0 -4 -27 15 -59 41 -33 26 -80 60 -106 75
-27 17 -43 32 -39 39 4 8 -1 9 -17 4 -19 -5 -21 -4 -9 4 18 13 35 9 35 -7z
m523 -32 c26 -32 42 -46 46 -38 3 7 3 3 0 -10 -3 -14 -1 -21 6 -20 6 2 19 -8
28 -22 13 -18 13 -22 3 -15 -11 6 -13 4 -8 -8 9 -24 0 -21 -14 4 -8 17 -8 20
1 14 8 -5 11 -3 8 6 -3 8 -10 13 -16 12 -6 -2 -17 7 -23 20 -7 12 -28 41 -47
65 -19 23 -32 42 -29 42 3 0 23 -23 45 -50z m-4041 -132 c-2 -29 -3 -6 -3 52
0 58 1 81 3 53 2 -29 2 -77 0 -105z m6340 115 c-3 -10 -5 -4 -5 12 0 17 2 24
5 18 2 -7 2 -21 0 -30z m-2266 10 c13 -16 12 -17 -3 -4 -17 13 -22 21 -14 21
2 0 10 -8 17 -17z m1610 0 c13 -17 13 -17 -6 -3 -11 8 -22 16 -24 17 -2 2 0 3
6 3 6 0 17 -8 24 -17z m215 -213 c103 -102 176 -176 163 -165 -34 27 -368 356
-358 353 4 -2 92 -86 195 -188z m-3613 131 c-19 -27 -31 -36 -36 -28 -5 7 -6
-1 -3 -18 5 -22 4 -26 -4 -15 -8 12 -10 13 -10 1 0 -8 -2 -12 -5 -9 -9 9 14
60 24 53 5 -3 19 8 31 25 12 16 24 30 26 30 3 0 -7 -18 -23 -39z m4054 -3 c-3
-8 -6 -5 -6 6 -1 11 2 17 5 13 3 -3 4 -12 1 -19z m-20 -45 c-3 -10 -5 -2 -5
17 0 19 2 27 5 18 2 -10 2 -26 0 -35z m-76 20 c13 -16 12 -17 -3 -4 -10 7 -18
15 -18 17 0 8 8 3 21 -13z m-6194 -15 c-3 -8 -6 -5 -6 6 -1 11 2 17 5 13 3 -3
4 -12 1 -19z m6316 -38 l22 -25 -27 24 c-16 14 -27 34 -27 45 1 20 1 20 6 1 3
-11 15 -31 26 -45z m-2213 15 c0 -5 -5 -3 -10 5 -8 12 -10 12 -10 1 0 -8 -2
-12 -5 -9 -3 3 -2 13 1 22 5 14 9 15 15 4 5 -7 9 -17 9 -23z m-946 10 c-10 -8
-26 -14 -34 -15 -8 0 -4 6 10 14 34 19 48 20 24 1z m548 -20 c3 3 11 -2 19
-12 12 -14 12 -15 0 -9 -9 6 -12 4 -9 -5 3 -8 10 -14 16 -14 5 0 14 -4 19 -9
5 -5 3 -6 -4 -2 -16 9 -16 2 -3 -27 9 -20 9 -20 -2 -3 -7 10 -28 40 -47 65
-19 25 -25 38 -14 28 11 -9 22 -15 25 -12z m2538 0 c13 -14 21 -25 18 -25 -2
0 -15 11 -28 25 -13 14 -21 25 -18 25 2 0 15 -11 28 -25z m-3022 -89 l-1 -71
-6 75 c-3 41 -10 82 -14 90 -5 8 -1 6 7 -4 12 -15 16 -39 14 -90z m20 28 l-3
-59 -5 67 c-3 37 -1 63 3 59 4 -4 7 -35 5 -67z m-141 60 c-3 -3 -12 -4 -19 -1
-8 3 -5 6 6 6 11 1 17 -2 13 -5z m3223 -59 c0 -3 -11 7 -25 23 -14 17 -25 33
-25 37 0 3 11 -7 25 -23 14 -17 25 -33 25 -37z m-4162 30 c-6 -14 -13 -23 -15
-21 -5 5 15 46 22 46 3 0 -1 -11 -7 -25z m12 -26 c-11 -24 -20 -39 -20 -32 0
15 32 84 37 79 2 -1 -6 -23 -17 -47z m910 41 c20 -6 21 -8 5 -8 -11 0 -31 4
-45 8 -20 6 -21 8 -5 8 11 0 31 -4 45 -8z m63 3 c-7 -2 -19 -2 -25 0 -7 3 -2
5 12 5 14 0 19 -2 13 -5z m957 -3 c0 8 9 0 20 -18 26 -42 26 -56 0 -17 -11 17
-20 23 -20 15 0 -13 -1 -13 -10 0 -5 8 -10 20 -10 25 0 6 5 3 10 -5 9 -13 10
-13 10 0z m-1140 -25 c-14 -8 -29 -14 -35 -14 -5 0 1 6 15 14 14 8 30 14 35
14 6 0 -1 -6 -15 -14z m75 5 c-27 -12 -43 -12 -25 0 8 5 22 9 30 9 10 0 8 -3
-5 -9z m3287 -65 c11 -21 10 -20 -37 35 l-30 35 28 -25 c16 -14 33 -34 39 -45z
m231 -160 c18 -21 27 -36 20 -32 -6 4 -13 3 -15 -3 -2 -6 -55 43 -118 107
l-115 118 112 -109 c62 -61 115 -107 119 -104 3 4 -45 59 -107 123 -63 64
-116 119 -119 123 -14 21 197 -189 223 -223z m-3568 205 c-3 -5 -12 -10 -18
-10 -7 0 -6 4 3 10 19 12 23 12 15 0z m-848 -32 c-3 -8 -6 -5 -6 6 -1 11 2 17
5 13 3 -3 4 -12 1 -19z m734 15 c-11 -5 -11 -7 0 -15 11 -7 9 -8 -5 -4 -10 4
-24 3 -30 -1 -7 -5 -3 0 7 10 11 9 24 17 31 16 6 0 5 -3 -3 -6z m76 1 c-3 -3
-12 -4 -19 -1 -8 3 -5 6 6 6 11 1 17 -2 13 -5z m827 -19 c10 -16 14 -31 9 -40
-7 -12 -11 -10 -22 8 -13 20 -13 21 2 8 21 -17 22 -7 1 24 -9 14 -14 25 -11
25 2 0 12 -11 21 -25z m-1274 -4 c-13 -25 -13 -34 0 -26 6 4 7 -1 3 -11 -5
-15 -7 -15 -15 0 -8 14 5 56 18 56 2 0 0 -9 -6 -19z m1630 -16 c0 -5 -5 -3
-10 5 -5 8 -10 20 -10 25 0 6 5 3 10 -5 5 -8 10 -19 10 -25z m-4160 22 c0 -1
-39 -41 -87 -87 l-88 -85 85 88 c79 81 90 92 90 84z m3137 -27 c3 -10 2 -11
-4 -3 -4 6 -22 13 -38 16 -27 4 -27 5 4 3 21 0 36 -7 38 -16z m-3197 7 c0 -1
-33 -34 -72 -72 l-73 -70 70 73 c64 67 75 77 75 69z m2229 -47 c0 -9 -4 -8 -9
5 -5 11 -9 27 -9 35 0 9 4 8 9 -5 5 -11 9 -27 9 -35z m736 28 c-9 -6 -19 -7
-22 -4 -4 3 -1 6 6 6 7 0 9 4 6 10 -4 6 1 7 11 3 15 -6 15 -7 -1 -15z m152 16
c-3 -3 -12 -4 -19 -1 -8 3 -5 6 6 6 11 1 17 -2 13 -5z m-54 -11 c-7 -2 -21 -2
-30 0 -10 3 -4 5 12 5 17 0 24 -2 18 -5z m1182 -33 c-9 -41 -17 -33 -9 9 4 17
9 30 11 27 3 -2 2 -19 -2 -36z m-1665 -15 c0 -5 -5 -3 -10 5 -8 12 -10 12 -10
1 0 -8 -2 -12 -5 -9 -3 3 -2 13 1 22 5 14 9 15 15 4 5 -7 9 -17 9 -23z m478
28 c-15 -2 -42 -2 -60 0 -18 2 -6 4 27 4 33 0 48 -2 33 -4z m122 -3 c0 -5 -2
-10 -4 -10 -3 0 -8 5 -11 10 -3 6 -1 10 4 10 6 0 11 -4 11 -10z m27 -22 c-3
-7 -5 -2 -5 12 0 14 2 19 5 13 2 -7 2 -19 0 -25z m693 -3 c0 -5 -5 -3 -10 5
-8 12 -10 12 -10 1 0 -8 -2 -12 -5 -9 -3 3 -2 13 1 22 5 14 9 15 15 4 5 -7 9
-17 9 -23z m354 -29 c-3 -15 -8 -25 -11 -23 -2 3 -1 17 3 31 3 15 8 25 11 23
2 -3 1 -17 -3 -31z m-3864 21 c0 -2 -15 -16 -32 -33 l-33 -29 29 33 c28 30 36
37 36 29z m1798 -26 c-7 -12 -16 -21 -21 -21 -4 0 0 11 10 24 22 29 30 27 11
-3z m353 -8 c-12 -20 -14 -14 -5 12 4 9 9 14 11 11 3 -2 0 -13 -6 -23z m1346
5 c-3 -8 -6 -5 -6 6 -1 11 2 17 5 13 3 -3 4 -12 1 -19z m-700 -415 c-1 -81 -3
-17 -3 142 0 160 2 226 3 148 2 -78 2 -208 0 -290z m-986 390 c-12 -20 -14
-14 -5 12 4 9 9 14 11 11 3 -2 0 -13 -6 -23z m350 -10 c-12 -20 -14 -14 -5 12
4 9 9 14 11 11 3 -2 0 -13 -6 -23z m1379 -8 c0 -5 -5 -3 -10 5 -5 8 -10 20
-10 25 0 6 5 3 10 -5 5 -8 10 -19 10 -25z m-3103 19 c-3 -3 -12 -4 -19 -1 -8
3 -5 6 6 6 11 1 17 -2 13 -5z m40 0 c-3 -3 -12 -4 -19 -1 -8 3 -5 6 6 6 11 1
17 -2 13 -5z m70 0 c-3 -3 -12 -4 -19 -1 -8 3 -5 6 6 6 11 1 17 -2 13 -5z m40
0 c-3 -3 -12 -4 -19 -1 -8 3 -5 6 6 6 11 1 17 -2 13 -5z m136 -1 c-7 -2 -19
-2 -25 0 -7 3 -2 5 12 5 14 0 19 -2 13 -5z m74 1 c-3 -3 -12 -4 -19 -1 -8 3
-5 6 6 6 11 1 17 -2 13 -5z m70 0 c-3 -3 -12 -4 -19 -1 -8 3 -5 6 6 6 11 1 17
-2 13 -5z m56 -1 c-7 -2 -21 -2 -30 0 -10 3 -4 5 12 5 17 0 24 -2 18 -5z m80
0 c-7 -2 -19 -2 -25 0 -7 3 -2 5 12 5 14 0 19 -2 13 -5z m200 0 c-7 -2 -19 -2
-25 0 -7 3 -2 5 12 5 14 0 19 -2 13 -5z m74 1 c-3 -3 -12 -4 -19 -1 -8 3 -5 6
6 6 11 1 17 -2 13 -5z m376 -1 c-56 -2 -151 -2 -210 0 -59 1 -13 3 102 3 116
0 164 -2 108 -3z m2725 0 c-86 -2 -230 -2 -320 0 -90 1 -19 3 157 3 176 0 249
-2 163 -3z m220 0 c-10 -2 -28 -2 -40 0 -13 2 -5 4 17 4 22 1 32 -1 23 -4z
m85 0 c-7 -2 -19 -2 -25 0 -7 3 -2 5 12 5 14 0 19 -2 13 -5z m-4753 -6 c0 -2
-12 -14 -27 -28 l-28 -24 24 28 c23 25 31 32 31 24z m163 -4 c-18 -2 -48 -2
-65 0 -18 2 -4 4 32 4 36 0 50 -2 33 -4z m2056 -38 c0 -5 -4 -3 -9 5 -5 8 -9
22 -9 30 0 16 17 -16 18 -35z m681 -235 c0 -312 2 -304 -70 -289 l-35 7 35 0
c19 0 41 0 48 1 9 1 12 64 12 281 0 154 2 280 5 280 3 0 5 -126 5 -280z m1083
229 l22 0 -21 -9 c-21 -8 -22 -16 -23 -143 -1 -102 1 -136 11 -140 14 -5 234
-6 1242 -7 352 0 637 -2 634 -5 -2 -3 -428 -5 -946 -5 -800 0 -942 -2 -949
-14 -4 -8 -8 65 -8 162 0 97 -4 186 -8 197 -5 11 -1 8 8 -7 9 -17 25 -28 38
-29z m1775 43 c7 -5 -16 -7 -50 -4 -85 5 -96 10 -23 11 33 0 66 -3 73 -7z
m105 -41 c-2 -3 -16 8 -31 24 l-27 28 31 -24 c17 -13 30 -26 27 -28z m-5867
-6 c-31 -25 -58 -45 -62 -45 -9 0 100 90 109 90 4 0 -17 -20 -47 -45z m-466 0
c-19 -19 -37 -35 -42 -35 -8 0 63 69 71 70 3 0 -10 -16 -29 -35z m2332 -127
c-1 -90 -3 -167 -5 -173 -1 -7 -289 -8 -852 -5 -754 5 -791 5 -325 8 289 1
665 3 837 4 171 0 316 4 323 8 8 5 10 50 8 146 l-3 139 -720 2 c-953 2 -939 2
-933 8 2 3 376 5 831 5 531 0 828 4 832 10 3 6 7 10 8 10 1 0 1 -73 -1 -162z
m1738 127 c0 -5 -5 -3 -10 5 -5 8 -10 20 -10 25 0 6 5 3 10 -5 5 -8 10 -19 10
-25z m17 3 c-3 -8 -6 -5 -6 6 -1 11 2 17 5 13 3 -3 4 -12 1 -19z m2208 2 c10
-11 16 -20 13 -20 -3 0 -13 9 -23 20 -10 11 -16 20 -13 20 3 0 13 -9 23 -20z
m-3616 -59 c1 -49 -7 -34 -13 24 -4 35 -3 44 3 30 5 -11 10 -35 10 -54z m3358
63 c-3 -3 -12 -4 -19 -1 -8 3 -5 6 6 6 11 1 17 -2 13 -5z m60 0 c-3 -3 -12 -4
-19 -1 -8 3 -5 6 6 6 11 1 17 -2 13 -5z m-5687 -7 c0 -2 -10 -12 -22 -23 l-23
-19 19 23 c18 21 26 27 26 19z m138 -4 c-10 -2 -26 -2 -35 0 -10 3 -2 5 17 5
19 0 27 -2 18 -5z m5728 -9 c10 -8 12 -12 4 -7 -8 4 -40 11 -70 14 l-55 6 51
2 c33 0 57 -4 70 -15z m-5791 -2 c-53 -42 -60 -46 -33 -19 16 15 31 27 35 27
4 0 3 -3 -2 -8z m6155 -271 c3 -2 -4 1 -15 7 -11 6 -78 71 -150 144 l-130 133
145 -140 c80 -77 147 -142 150 -144z m-2563 247 c-3 -8 -6 -5 -6 6 -1 11 2 17
5 13 3 -3 4 -12 1 -19z m14 -98 l-8 -115 -2 86 c-1 77 7 155 14 147 2 -2 0
-55 -4 -118z m2344 8 l110 -113 -105 103 c-58 56 -110 102 -115 102 -5 0 11
-20 35 -45 24 -24 42 -46 39 -48 -2 -1 -26 22 -54 52 -27 30 -44 51 -37 47 6
-4 12 -2 12 3 0 6 1 11 3 11 1 0 52 -51 112 -112z m-6036 70 c-2 -2 -17 -14
-34 -28 l-30 -25 24 28 c14 15 29 27 34 27 6 0 8 -1 6 -2z m2258 -145 c-2 -27
-3 -5 -3 47 0 52 1 74 3 48 2 -27 2 -69 0 -95z m-2351 90 c-8 -15 -15 -25 -16
-21 0 12 23 58 27 54 3 -2 -2 -17 -11 -33z m61 -11 c-36 -37 -32 -68 17 -122
35 -39 34 -38 -12 6 -38 39 -50 57 -46 71 7 18 54 73 63 73 2 0 -7 -12 -22
-28z m3120 -4 c-3 -7 -5 -2 -5 12 0 14 2 19 5 13 2 -7 2 -19 0 -25z m-3160
-13 c-7 -13 -14 -20 -15 -14 -2 5 2 16 8 24 18 21 20 18 7 -10z m3780 -37 c-2
-13 -4 -5 -4 17 -1 22 1 32 4 23 2 -10 2 -28 0 -40z m2398 -48 c49 -49 87 -90
85 -90 -3 0 -46 41 -95 90 -49 50 -87 90 -85 90 3 0 46 -40 95 -90z m-6202 40
c3 -11 1 -18 -4 -14 -5 3 -9 12 -9 20 0 20 7 17 13 -6z m3184 -222 c-1 -46 -3
-9 -3 82 0 91 2 128 3 83 2 -46 2 -120 0 -165z m-3057 155 c0 -8 -38 17 -51
33 -9 11 -2 9 19 -6 17 -13 32 -25 32 -27z m2245 -23 c-4 -34 -9 -59 -12 -57
-2 3 -1 33 3 66 4 34 9 60 11 57 3 -3 2 -32 -2 -66z m-2310 10 c27 -27 47 -50
44 -50 -3 0 -27 23 -54 50 -27 28 -47 50 -44 50 3 0 27 -22 54 -50z m6269 -47
l31 -14 -29 6 c-27 6 -28 5 -15 -12 13 -16 12 -17 -3 -4 -10 7 -16 17 -13 21
2 4 -5 16 -16 26 -12 10 -25 28 -31 39 -5 11 3 5 18 -14 15 -18 41 -40 58 -48z
m186 74 c0 -2 -12 -14 -27 -28 l-28 -24 24 28 c23 25 31 32 31 24z m-2723 -64
c-3 -10 -5 -2 -5 17 0 19 2 27 5 18 2 -10 2 -26 0 -35z m-20 15 c-3 -8 -6 -5
-6 6 -1 11 2 17 5 13 3 -3 4 -12 1 -19z m-3554 -5 c-13 -2 -33 -2 -45 0 -13 2
-3 4 22 4 25 0 35 -2 23 -4z m6230 0 c-7 -2 -19 -2 -25 0 -7 3 -2 5 12 5 14 0
19 -2 13 -5z m-6793 -50 l25 -28 -35 30 c-55 47 -56 48 -35 37 11 -6 31 -23
45 -39z m540 11 c0 -2 -13 2 -30 11 -16 9 -30 18 -30 21 0 2 14 -2 30 -11 17
-9 30 -18 30 -21z m2187 4 c-3 -7 -5 -2 -5 12 0 14 2 19 5 13 2 -7 2 -19 0
-25z m1374 -5 c-12 -20 -14 -14 -5 12 4 9 9 14 11 11 3 -2 0 -13 -6 -23z
m2447 15 c7 -7 12 -21 11 -32 -1 -18 -2 -17 -8 4 -4 14 -17 27 -31 31 -21 6
-22 7 -4 8 11 1 25 -4 32 -11z m322 8 c0 -2 -7 -7 -16 -10 -8 -3 -12 -2 -9 4
6 10 25 14 25 6z m-6716 -108 c56 -57 113 -119 125 -138 21 -33 20 -32 -11 5
-61 74 -143 158 -191 196 -27 22 -44 39 -37 39 6 0 58 -46 114 -102z m356 65
c0 -7 -39 17 -46 28 -3 6 5 3 20 -6 14 -10 26 -19 26 -22z m1899 -63 c0 -8 -9
8 -19 35 -11 28 -20 52 -19 55 2 11 38 -76 38 -90z m1702 43 c-11 -21 -20 -35
-21 -31 0 12 33 78 38 74 2 -2 -6 -21 -17 -43z m2636 41 c-3 -3 -12 -4 -19 -1
-8 3 -5 6 6 6 11 1 17 -2 13 -5z m73 -9 c-7 -8 -17 -15 -23 -15 -6 0 -2 7 9
15 25 19 30 19 14 0z m-6243 -1 c-3 -3 -12 -4 -19 -1 -8 3 -5 6 6 6 11 1 17
-2 13 -5z m116 -11 c-18 -2 -48 -2 -65 0 -18 2 -4 4 32 4 36 0 50 -2 33 -4z
m64 1 c-3 -3 -12 -4 -19 -1 -8 3 -5 6 6 6 11 1 17 -2 13 -5z m-32 -204 c110
-110 198 -200 195 -200 -3 0 -95 90 -205 200 -110 110 -198 200 -195 200 3 0
95 -90 205 -200z m1636 183 c12 -16 12 -17 -1 -7 -8 6 -22 14 -30 17 -13 5
-12 6 1 6 9 1 23 -7 30 -16z m2139 13 c0 -2 -12 -11 -27 -20 l-28 -17 24 20
c23 21 31 25 31 17z m1713 -3 c-7 -2 -19 -2 -25 0 -7 3 -2 5 12 5 14 0 19 -2
13 -5z m240 0 c-40 -2 -107 -2 -150 0 -43 1 -10 3 72 3 83 0 118 -2 78 -3z
m280 0 c-7 -2 -19 -2 -25 0 -7 3 -2 5 12 5 14 0 19 -2 13 -5z m44 1 c-3 -3
-12 -4 -19 -1 -8 3 -5 6 6 6 11 1 17 -2 13 -5z m-4018 -44 c0 -10 -3 -8 -9 5
-12 27 -12 43 0 25 5 -8 9 -22 9 -30z m-19 -5 c0 -5 -5 -3 -10 5 -5 8 -10 20
-10 25 0 6 5 3 10 -5 5 -8 10 -19 10 -25z m1337 3 c-3 -8 -6 -5 -6 6 -1 11 2
17 5 13 3 -3 4 -12 1 -19z m-570 -20 c-3 -7 -5 -2 -5 12 0 14 2 19 5 13 2 -7
2 -19 0 -25z m931 -38 c0 -9 -3 -7 -8 5 -5 11 -8 29 -8 40 0 16 2 15 8 -5 4
-14 8 -32 8 -40z m9 38 c-3 -8 -6 -5 -6 6 -1 11 2 17 5 13 3 -3 4 -12 1 -19z
m-2048 -28 c0 -10 -3 -8 -9 5 -12 27 -12 43 0 25 5 -8 9 -22 9 -30z m361 19
c0 8 2 12 5 9 3 -3 2 -13 -1 -22 -5 -14 -9 -15 -15 -4 -5 7 -9 18 -9 23 0 6 5
3 10 -5 8 -12 10 -12 10 -1z m1305 -55 c-9 -13 -19 -24 -22 -24 -4 0 -2 5 5
12 17 17 15 33 -2 19 -10 -9 -10 -3 3 22 14 31 17 32 24 14 5 -13 2 -28 -8
-43z m2502 -271 c-1 -65 -3 -14 -3 112 0 127 2 180 3 118 2 -62 2 -165 0 -230z
m-4150 305 c-3 -8 -6 -5 -6 6 -1 11 2 17 5 13 3 -3 4 -12 1 -19z m1136 -52
l42 3 -40 -8 c-22 -5 -43 -7 -47 -4 -5 2 -7 21 -6 41 l1 37 4 -36 c4 -37 4
-37 46 -33z m-769 38 c3 -8 2 -12 -4 -9 -38 23 43 -100 119 -180 l56 -60 -58
55 c-70 66 -140 170 -131 194 8 20 10 20 18 0z m1621 -31 c-9 -15 -13 -19 -10
-8 4 11 10 29 13 40 3 11 7 14 9 8 3 -7 -3 -24 -12 -40z m-1986 11 c1 11 3 17
6 14 4 -3 3 -18 -1 -34 -6 -25 -8 -26 -15 -9 -11 28 -10 55 1 30 8 -19 9 -19
9 -1z m392 -21 c13 -16 12 -17 -3 -4 -17 13 -22 21 -14 21 2 0 10 -8 17 -17z
m1212 -10 c-5 -12 -3 -14 7 -8 8 5 6 -5 -7 -26 -11 -19 -25 -33 -30 -32 -5 1
-41 -29 -79 -68 -85 -86 -73 -92 16 -6 l65 62 -55 -58 c-54 -58 -121 -113
-105 -88 5 9 3 12 -6 9 -8 -3 -13 -10 -12 -16 2 -6 -7 -16 -20 -22 -21 -11
-21 -10 -3 4 14 11 16 16 6 16 -8 0 -4 7 10 16 14 9 60 51 103 93 42 42 81 75
84 73 4 -2 9 2 12 9 2 7 -1 9 -9 4 -7 -4 -5 5 4 24 17 33 30 42 19 14z m-664
-9 c9 -8 -155 -2 -174 7 -13 6 13 7 75 3 52 -3 97 -8 99 -10z m346 6 c-11 -5
-54 -8 -95 -8 -71 1 -72 2 -25 8 76 10 144 10 120 0z m-540 -10 c16 -7 17 -9
3 -9 -9 -1 -22 -9 -27 -18 -6 -10 -11 -13 -11 -7 0 5 5 15 12 22 9 9 9 12 0
12 -6 0 -16 -8 -21 -17 -6 -10 -11 -13 -11 -7 0 11 20 34 30 33 3 0 14 -4 25
-9z m596 -7 c11 -15 11 -16 -1 -5 -18 16 -38 16 -22 0 7 -7 12 -24 12 -38 0
-35 -17 -50 -54 -49 -31 2 -31 2 4 8 31 5 35 10 38 39 2 23 -2 34 -13 38 -13
6 -14 8 -3 15 19 12 24 11 39 -8z m640 -24 c-12 -19 -21 -27 -21 -19 0 13 -1
13 -10 0 -5 -8 -10 -10 -10 -5 0 6 5 17 10 25 9 13 10 13 10 0 0 -9 7 -4 17
12 10 15 19 26 21 24 2 -2 -6 -19 -17 -37z m-1931 -50 c0 8 15 -10 33 -40 18
-30 37 -60 41 -68 6 -9 5 -12 -2 -7 -5 3 -12 2 -14 -4 -1 -5 -14 7 -27 28 -15
23 -18 32 -8 23 22 -18 21 -9 -3 31 -11 18 -20 26 -20 18 -1 -16 -49 68 -49
85 0 6 11 -10 24 -35 13 -25 24 -39 25 -31z m-2200 7 c0 -12 -5 -7 -19 24 -11
24 -11 24 3 6 9 -11 16 -24 16 -30z m2198 19 c-3 -3 -9 2 -12 12 -6 14 -5 15
5 6 7 -7 10 -15 7 -18z m1291 -41 c-22 -24 -23 -24 -252 -24 -127 0 -227 3
-223 7 4 4 107 6 229 6 242 -2 255 1 258 56 2 25 2 25 6 3 3 -16 -3 -32 -18
-48z m-774 -93 c-3 -2 1 -11 8 -19 11 -13 9 -14 -11 -1 -12 8 -20 18 -18 24 2
5 -24 39 -58 75 l-61 65 72 -69 c40 -39 70 -72 68 -75z m158 119 c3 -11 1 -18
-4 -14 -5 3 -9 12 -9 20 0 20 7 17 13 -6z m-2798 -30 c21 -22 37 -40 34 -40
-3 0 -23 18 -44 40 -21 22 -37 40 -34 40 3 0 23 -18 44 -40z m4025 19 c0 8 2
12 5 9 3 -3 2 -13 -1 -22 -5 -14 -9 -15 -15 -4 -5 7 -9 18 -9 23 0 6 5 3 10
-5 8 -12 10 -12 10 -1z m-4093 -46 c-3 -10 -5 -4 -5 12 0 17 2 24 5 18 2 -7 2
-21 0 -30z m2918 27 c-11 -5 -31 -9 -45 -9 -23 0 -23 1 -5 9 11 5 31 9 45 9
23 0 23 -1 5 -9z m1148 -17 c-5 -11 -3 -14 6 -8 10 6 11 3 2 -14 -13 -24 -23
-28 -15 -6 14 34 -7 11 -30 -33 -25 -48 -306 -340 -306 -317 0 6 8 19 18 27
74 67 212 203 212 211 0 5 11 18 24 28 13 10 38 44 55 74 30 53 47 72 34 38z
m-1076 1 c-3 -3 -12 -4 -19 -1 -8 3 -5 6 6 6 11 1 17 -2 13 -5z m-2854 -59
c23 -32 17 -32 -13 0 -13 14 -19 25 -14 25 5 0 17 -12 27 -25z m6124 -27 c-3
-8 -6 -5 -6 6 -1 11 2 17 5 13 3 -3 4 -12 1 -19z m-6250 -240 c-1 -46 -3 -9
-3 82 0 91 2 128 3 83 2 -46 2 -120 0 -165z m187 203 c-5 -6 -34 20 -34 30 0
5 8 1 18 -8 10 -10 17 -20 16 -22z m2618 -20 c-2 -9 5 -10 20 -6 19 5 20 4 8
-5 -12 -9 -9 -10 15 -6 22 5 26 4 15 -4 -12 -8 -13 -10 -1 -10 8 0 12 -3 8 -6
-6 -6 -97 31 -97 40 0 3 8 3 18 0 14 -5 14 -3 -2 10 -23 18 -40 21 -30 5 4 -8
0 -8 -15 0 -25 14 -28 23 -4 14 12 -5 14 -3 8 7 -5 8 5 6 26 -7 19 -11 33 -26
31 -32z m-520 14 c3 3 11 -3 19 -12 13 -16 12 -17 -3 -4 -20 15 -25 2 -6 -17
7 -7 9 -12 6 -12 -3 0 -18 17 -34 38 -17 23 -20 31 -8 19 12 -9 23 -15 26 -12z
m1188 4 c-16 -14 -19 -19 -7 -15 23 7 22 -1 -2 -14 -11 -5 -27 -7 -36 -4 -13
5 -8 12 22 30 47 29 56 30 23 3z m-2796 -18 c-2 -3 -12 3 -22 13 -16 17 -16
18 5 5 12 -7 20 -15 17 -18z m-332 -141 c-1 -2 -37 32 -80 75 l-77 79 80 -74
c44 -41 79 -77 77 -80z m3066 121 c11 -6 10 -10 -4 -15 -9 -3 -19 -4 -22 -1
-3 3 1 5 9 6 8 0 6 4 -6 9 -13 6 -15 9 -5 9 8 0 21 -3 28 -8z m582 6 c0 -1
-51 -52 -112 -112 l-113 -110 110 113 c102 104 115 117 115 109z m750 -722
c650 -651 718 -720 706 -712 -14 8 -1439 1434 -1426 1427 8 -4 332 -326 720
-715z m-2275 556 c-3 -2 3 -14 12 -25 37 -42 -65 45 -122 106 -56 59 -55 58
15 -9 42 -40 80 -73 85 -73 5 0 -26 37 -70 83 l-80 82 82 -79 c45 -44 80 -82
78 -85z m442 153 c-3 -3 -12 -4 -19 -1 -8 3 -5 6 6 6 11 1 17 -2 13 -5z m423
-8 c0 -2 -7 -7 -16 -10 -8 -3 -12 -2 -9 4 6 10 25 14 25 6z m-409 -21 c19 -8
27 -14 19 -14 -14 0 -72 28 -59 29 4 0 22 -7 40 -15z m49 5 c8 -5 11 -10 5
-10 -5 0 -17 5 -25 10 -8 5 -10 10 -5 10 6 0 17 -5 25 -10z m390 0 c-8 -5 -19
-10 -25 -10 -5 0 -3 5 5 10 8 5 20 10 25 10 6 0 3 -5 -5 -10z m-291 -14 c-2
-2 -29 -6 -59 -9 -36 -4 -48 -3 -35 3 19 8 103 14 94 6z m201 -6 c16 -6 1 -7
-40 -3 -36 3 -67 7 -69 9 -8 8 84 2 109 -6z m-97 -17 c-29 -2 -77 -2 -105 0
-29 2 -6 3 52 3 58 0 81 -1 53 -3z m-2388 -21 c-3 -3 -11 0 -18 7 -9 10 -8 11
6 5 10 -3 15 -9 12 -12z m5492 -44 c-3 -7 -5 -2 -5 12 0 14 2 19 5 13 2 -7 2
-19 0 -25z m-30 -10 c-3 -8 -6 -5 -6 6 -1 11 2 17 5 13 3 -3 4 -12 1 -19z
m-5869 -13 c-3 -3 -9 2 -12 12 -6 14 -5 15 5 6 7 -7 10 -15 7 -18z m476 -1 c3
-8 2 -12 -4 -9 -6 3 -10 10 -10 16 0 14 7 11 14 -7z m1696 -62 c0 -3 -5 -1
-12 6 -19 19 -32 14 -17 -5 13 -16 12 -17 -4 -4 -9 8 -15 16 -12 19 3 3 -3 14
-12 26 -12 12 -4 9 20 -8 20 -16 37 -31 37 -34z m3697 36 c-3 -8 -6 -5 -6 6
-1 11 2 17 5 13 3 -3 4 -12 1 -19z m-5552 -288 c159 -159 288 -290 285 -290
-3 0 -136 131 -295 290 -159 160 -288 290 -285 290 3 0 136 -130 295 -290z
m5582 258 c-3 -7 -5 -2 -5 12 0 14 2 19 5 13 2 -7 2 -19 0 -25z m-30 -10 c-3
-8 -6 -5 -6 6 -1 11 2 17 5 13 3 -3 4 -12 1 -19z m-2551 -3 c-1 -9 -13 -23
-27 -32 -23 -16 -23 -16 -10 0 7 9 10 17 5 17 -5 0 0 7 10 15 24 18 25 18 22
0z m-2761 -5 c3 -6 -1 -7 -9 -4 -18 7 -21 14 -7 14 6 0 13 -4 16 -10z m1650 0
c3 -6 -1 -7 -9 -4 -18 7 -21 14 -7 14 6 0 13 -4 16 -10z m1225 -15 c13 -14 19
-25 14 -25 -8 1 -50 50 -41 50 2 0 14 -11 27 -25z m-1210 -21 c0 -2 -13 2 -30
11 -16 9 -30 18 -30 21 0 2 14 -2 30 -11 17 -9 30 -18 30 -21z m44 -17 c-10
-6 -20 -5 -27 3 -9 8 -7 10 8 5 17 -6 16 -3 -5 15 l-25 22 32 -18 c27 -15 30
-20 17 -27z m991 27 c-11 -8 -19 -19 -18 -24 2 -5 -4 -7 -13 -3 -12 4 -10 10
13 24 34 23 46 24 18 3z m2612 -6 c-3 -8 -6 -5 -6 6 -1 11 2 17 5 13 3 -3 4
-12 1 -19z m-6250 -25 c-3 -10 -5 -4 -5 12 0 17 2 24 5 18 2 -7 2 -21 0 -30z
m6280 -20 c-3 -10 -5 -2 -5 17 0 19 2 27 5 18 2 -10 2 -26 0 -35z m-5286 20
c13 -16 12 -17 -3 -4 -10 7 -18 15 -18 17 0 8 8 3 21 -13z m1707 -2 c11 -7 11
-9 -2 -14 -9 -4 -23 -4 -32 0 -13 5 -13 7 -2 14 7 5 15 9 18 9 3 0 11 -4 18
-9z m1947 -798 c440 -441 798 -803 795 -803 -3 0 -367 362 -810 805 -443 443
-800 804 -795 803 6 -1 370 -363 810 -805z m1602 745 c-2 -13 -4 -3 -4 22 0
25 2 35 4 23 2 -13 2 -33 0 -45z m-2717 37 c-14 -8 -29 -14 -35 -14 -5 0 1 6
15 14 14 8 30 14 35 14 6 0 -1 -6 -15 -14z m-770 -10 c14 -8 21 -14 15 -14 -5
0 -21 6 -35 14 -14 8 -20 14 -15 14 6 0 21 -6 35 -14z m819 11 c-2 -2 -15 -9
-29 -15 -24 -11 -24 -11 -6 3 16 13 49 24 35 12z m-2551 -31 c-3 -3 -9 2 -12
12 -6 14 -5 15 5 6 7 -7 10 -15 7 -18z m1712 -1 c0 -2 -9 0 -20 6 -11 6 -20
13 -20 16 0 2 9 0 20 -6 11 -6 20 -13 20 -16z m730 6 c-8 -5 -19 -10 -25 -10
-5 0 -3 5 5 10 8 5 20 10 25 10 6 0 3 -5 -5 -10z m-630 -20 c-14 -4 -34 -8
-45 -8 -16 0 -15 2 5 8 14 4 34 8 45 8 16 0 15 -2 -5 -8z m610 0 c20 -6 21 -8
5 -8 -11 0 -31 4 -45 8 -20 6 -21 8 -5 8 11 0 31 -4 45 -8z m-73 -6 c-3 -3
-12 -4 -19 -1 -8 3 -5 6 6 6 11 1 17 -2 13 -5z m-520 -10 c-3 -3 -12 -4 -19
-1 -8 3 -5 6 6 6 11 1 17 -2 13 -5z m128 -15 c38 -6 38 -7 8 -8 l-33 -1 0 -57
c0 -68 -7 -67 -11 2 -2 40 -8 53 -28 68 l-26 19 25 -8 c14 -4 43 -11 65 -15z
m328 4 l-33 -17 0 -979 c0 -539 -2 -978 -5 -975 -3 2 -6 434 -6 959 -1 540 -6
962 -11 972 -5 10 -21 17 -41 18 -31 1 -31 1 8 10 22 6 54 14 70 18 47 14 53
11 18 -6z m104 11 c-3 -3 -12 -4 -19 -1 -8 3 -5 6 6 6 11 1 17 -2 13 -5z m-37
-7 c0 -2 -10 -12 -22 -23 l-23 -19 19 23 c18 21 26 27 26 19z m-470 -27 c6
-11 8 -20 6 -20 -3 0 -10 9 -16 20 -6 11 -8 20 -6 20 3 0 10 -9 16 -20z m3367
-27 c-3 -10 -5 -2 -5 17 0 19 2 27 5 18 2 -10 2 -26 0 -35z m-4427 -725 c-3
-2 -176 170 -385 382 l-380 385 385 -382 c211 -210 382 -383 380 -385z m4400
-82 c1 -456 -2 -831 -5 -834 -3 -3 -5 372 -5 833 0 461 2 836 5 833 3 -2 5
-377 5 -832z m-3333 227 c-1 -109 -2 -22 -2 192 0 215 1 304 2 198 2 -105 2
-281 0 -390z m400 -716 c-1 -237 -2 -43 -2 433 0 476 1 670 2 432 2 -237 2
-627 0 -865z m2960 1241 c-3 -7 -5 -2 -5 12 0 14 2 19 5 13 2 -7 2 -19 0 -25z
m0 -65 c-3 -10 -5 -2 -5 17 0 19 2 27 5 18 2 -10 2 -26 0 -35z m-3320 15 c-3
-8 -6 -5 -6 6 -1 11 2 17 5 13 3 -3 4 -12 1 -19z m-3010 -45 c-3 -10 -5 -4 -5
12 0 17 2 24 5 18 2 -7 2 -21 0 -30z m6330 -35 c-3 -8 -6 -5 -6 6 -1 11 2 17
5 13 3 -3 4 -12 1 -19z m-6330 -841 c-1 -150 -2 -24 -2 278 0 303 1 425 2 272
2 -153 2 -401 0 -550z m6330 801 c-3 -8 -6 -5 -6 6 -1 11 2 17 5 13 3 -3 4
-12 1 -19z m0 -70 c-3 -8 -6 -5 -6 6 -1 11 2 17 5 13 3 -3 4 -12 1 -19z m0
-50 c-3 -7 -5 -2 -5 12 0 14 2 19 5 13 2 -7 2 -19 0 -25z m-5272 2 c3 -5 1
-10 -4 -10 -6 0 -11 5 -11 10 0 6 2 10 4 10 3 0 8 -4 11 -10z m30 -40 c10 -11
16 -20 13 -20 -3 0 -13 9 -23 20 -10 11 -16 20 -13 20 3 0 13 -9 23 -20z
m5242 -12 c-3 -7 -5 -2 -5 12 0 14 2 19 5 13 2 -7 2 -19 0 -25z m-5189 -38 c7
-11 11 -20 9 -20 -2 0 -12 9 -22 20 -10 11 -14 20 -9 20 5 0 15 -9 22 -20z
m5189 -32 c-3 -8 -6 -5 -6 6 -1 11 2 17 5 13 3 -3 4 -12 1 -19z m-5133 -27
c-5 -6 -34 20 -34 30 0 5 8 1 18 -8 10 -10 17 -20 16 -22z m5133 -23 c-3 -7
-5 -2 -5 12 0 14 2 19 5 13 2 -7 2 -19 0 -25z m-5053 -57 c-5 -6 -34 20 -34
30 0 5 8 1 18 -8 10 -10 17 -20 16 -22z m5053 -23 c-3 -7 -5 -2 -5 12 0 14 2
19 5 13 2 -7 2 -19 0 -25z m-4997 -28 c6 -11 8 -20 6 -20 -3 0 -10 9 -16 20
-6 11 -8 20 -6 20 3 0 10 -9 16 -20z m4997 -52 c-3 -7 -5 -2 -5 12 0 14 2 19
5 13 2 -7 2 -19 0 -25z m-6270 -30 c-3 -8 -6 -5 -6 6 -1 11 2 17 5 13 3 -3 4
-12 1 -19z m1348 4 c-3 -3 -11 0 -18 7 -9 10 -8 11 6 5 10 -3 15 -9 12 -12z
m-1348 -790 c-1 -141 -2 -25 -2 258 0 283 1 399 2 257 2 -141 2 -373 0 -515z
m1398 738 l20 -25 -22 19 c-13 11 -23 24 -23 29 0 6 1 8 3 6 1 -2 11 -15 22
-29z m4872 -2 c-3 -7 -5 -2 -5 12 0 14 2 19 5 13 2 -7 2 -19 0 -25z m-4327
-65 c0 -8 -9 0 -50 45 l-45 47 48 -45 c26 -24 47 -45 47 -47z m-2313 45 c-3
-8 -6 -5 -6 6 -1 11 2 17 5 13 3 -3 4 -12 1 -19z m3280 -55 c-3 -10 -5 -2 -5
17 0 19 2 27 5 18 2 -10 2 -26 0 -35z m-1452 19 c-3 -3 -11 0 -18 7 -9 10 -8
11 6 5 10 -3 15 -9 12 -12z m-1818 -179 c-2 -37 -3 -9 -3 62 0 72 1 102 3 68
2 -34 2 -93 0 -130z m3310 165 c-3 -8 -6 -5 -6 6 -1 11 2 17 5 13 3 -3 4 -12
1 -19z m3320 -15 c-3 -10 -5 -4 -5 12 0 17 2 24 5 18 2 -7 2 -21 0 -30z
m-4291 -15 l19 -23 -25 20 c-14 11 -27 21 -29 22 -2 2 0 3 6 3 5 0 18 -10 29
-22z m971 -25 c-3 -10 -5 -4 -5 12 0 17 2 24 5 18 2 -7 2 -21 0 -30z m-1436
10 c13 -16 12 -17 -3 -4 -10 7 -18 15 -18 17 0 8 8 3 21 -13z m4756 -30 c-3
-10 -5 -4 -5 12 0 17 2 24 5 18 2 -7 2 -21 0 -30z m-4723 1 c3 -8 2 -12 -4 -9
-6 3 -10 10 -10 16 0 14 7 11 14 -7z m1363 -16 c-3 -7 -5 -2 -5 12 0 14 2 19
5 13 2 -7 2 -19 0 -25z m47 -393 c7 -503 6 -478 19 -495 10 -13 9 -13 -5 0
-26 24 -33 224 -27 750 2 249 8 153 13 -255z m-899 367 c-3 -3 -11 0 -18 7 -9
10 -8 11 6 5 10 -3 15 -9 12 -12z m4212 -19 c-3 -10 -5 -4 -5 12 0 17 2 24 5
18 2 -7 2 -21 0 -30z m-4652 -11 c-3 -3 -11 0 -18 7 -9 10 -8 11 6 5 10 -3 15
-9 12 -12z m470 8 c3 -6 -1 -7 -9 -4 -18 7 -21 14 -7 14 6 0 13 -4 16 -10z
m-426 -54 c-3 -3 -11 5 -18 17 -13 21 -12 21 5 5 10 -10 16 -20 13 -22z m4608
-13 c-3 -10 -5 -2 -5 17 0 19 2 27 5 18 2 -10 2 -26 0 -35z m-4143 21 c3 -8 2
-12 -4 -9 -6 3 -10 10 -10 16 0 14 7 11 14 -7z m3351 -24 c10 -11 16 -20 13
-20 -3 0 -13 9 -23 20 -10 11 -16 20 -13 20 3 0 13 -9 23 -20z m-3290 -39 c-6
-5 -25 10 -25 20 0 5 6 4 14 -3 8 -7 12 -15 11 -17z m-440 -21 c21 -22 37 -41
34 -42 -2 -2 -23 16 -45 39 -23 24 -39 43 -35 43 4 0 24 -18 46 -40z m4522 8
c-3 -7 -5 -2 -5 12 0 14 2 19 5 13 2 -7 2 -19 0 -25z m-746 5 c13 -16 12 -17
-3 -4 -10 7 -18 15 -18 17 0 8 8 3 21 -13z m-2614 -35 c-3 -7 -5 -2 -5 12 0
14 2 19 5 13 2 -7 2 -19 0 -25z m-676 -5 c13 -16 12 -17 -3 -4 -17 13 -22 21
-14 21 2 0 10 -8 17 -17z m-416 -43 c10 -11 16 -20 13 -20 -3 0 -13 9 -23 20
-10 11 -16 20 -13 20 3 0 13 -9 23 -20z m1092 -37 c-3 -10 -5 -2 -5 17 0 19 2
27 5 18 2 -10 2 -26 0 -35z m-332 -263 c165 -165 298 -300 295 -300 -3 0 -140
135 -305 300 -165 165 -298 300 -295 300 3 0 140 -135 305 -300z m3692 278
c-3 -8 -6 -5 -6 6 -1 11 2 17 5 13 3 -3 4 -12 1 -19z m-4032 -396 c214 -214
417 -412 450 -441 l60 -53 -55 43 c-53 41 -862 839 -851 839 3 0 181 -175 396
-388z m4032 316 c-2 -13 -4 -3 -4 22 0 25 2 35 4 23 2 -13 2 -33 0 -45z
m-3360 -45 c-3 -10 -5 -4 -5 12 0 17 2 24 5 18 2 -7 2 -21 0 -30z m3360 -15
c-3 -7 -5 -2 -5 12 0 14 2 19 5 13 2 -7 2 -19 0 -25z m-6330 -20 c-3 -8 -6 -5
-6 6 -1 11 2 17 5 13 3 -3 4 -12 1 -19z m2970 -45 c-3 -10 -5 -4 -5 12 0 17 2
24 5 18 2 -7 2 -21 0 -30z m3360 -95 c-2 -18 -4 -6 -4 27 0 33 2 48 4 33 2
-15 2 -42 0 -60z m-786 -15 c13 -17 13 -17 -6 -3 -11 8 -22 16 -24 17 -2 2 0
3 6 3 6 0 17 -8 24 -17z m49 -53 c0 -6 -9 -2 -20 7 -11 10 -20 19 -20 21 0 1
9 -2 20 -8 11 -6 20 -15 20 -20z m737 8 c-3 -8 -6 -5 -6 6 -1 11 2 17 5 13 3
-3 4 -12 1 -19z m-512 -228 c115 -116 208 -210 205 -210 -3 0 -100 94 -215
210 -115 116 -208 210 -205 210 3 0 100 -94 215 -210z m512 188 c-3 -8 -6 -5
-6 6 -1 11 2 17 5 13 3 -3 4 -12 1 -19z m0 -50 c-3 -7 -5 -2 -5 12 0 14 2 19
5 13 2 -7 2 -19 0 -25z m-3350 -90 c-2 -18 -4 -4 -4 32 0 36 2 50 4 33 2 -18
2 -48 0 -65z m3350 -10 c-2 -13 -4 -5 -4 17 -1 22 1 32 4 23 2 -10 2 -28 0
-40z m-6270 -50 c-3 -7 -5 -2 -5 12 0 14 2 19 5 13 2 -7 2 -19 0 -25z m2973
-53 l23 -20 -7 20 c-5 15 -4 17 4 9 6 -6 12 -18 14 -27 3 -20 26 -48 35 -42 4
2 20 -8 37 -21 l29 -26 -31 21 c-17 11 -33 18 -36 16 -9 -9 -118 113 -118 132
1 12 5 8 14 -12 7 -16 24 -39 36 -50z m337 43 c-3 -7 -5 -2 -5 12 0 14 2 19 5
13 2 -7 2 -19 0 -25z m2972 4 c-21 -8 -2 -33 133 -171 l143 -146 -133 130
c-74 72 -142 142 -153 157 -21 29 -17 66 6 45 7 -7 9 -13 4 -15z m-3384 -2
c10 -11 16 -20 13 -20 -3 0 -13 9 -23 20 -10 11 -16 20 -13 20 3 0 13 -9 23
-20z m3355 -35 c14 -19 14 -19 -2 -6 -10 7 -18 18 -18 24 0 6 1 8 3 6 1 -2 9
-13 17 -24z m61 8 c13 -16 12 -17 -3 -4 -10 7 -18 15 -18 17 0 8 8 3 21 -13z
m-3376 -23 c10 -11 16 -20 13 -20 -3 0 -13 9 -23 20 -10 11 -16 20 -13 20 3 0
13 -9 23 -20z m3445 -55 c30 -30 52 -55 49 -55 -2 0 -29 25 -59 55 -30 30 -52
55 -49 55 2 0 29 -25 59 -55z m-3280 -120 c69 -69 122 -125 120 -125 -3 0 -61
56 -130 125 -69 69 -122 125 -120 125 3 0 61 -56 130 -125z m1 45 c6 0 7 5 3
12 -4 7 7 2 24 -11 38 -26 43 -39 7 -15 -43 28 -27 1 36 -61 33 -33 70 -73 82
-90 12 -16 -23 17 -78 74 -55 57 -101 108 -103 115 -2 6 2 3 8 -6 6 -10 16
-18 21 -18z m-3075 -43 c9 -3 8 -4 -3 -3 -12 1 -18 10 -19 26 -1 21 0 21 3 3
2 -12 11 -24 19 -26z m3308 1 c7 -5 5 -8 -6 -8 -14 0 -18 8 -17 33 2 27 2 28
6 7 3 -14 10 -28 17 -32z m3161 2 c27 -27 47 -50 44 -50 -3 0 -27 23 -54 50
-27 28 -47 50 -44 50 3 0 27 -22 54 -50z m-437 -47 c34 -34 37 -38 8 -13 -23
19 -54 46 -71 58 -18 14 -21 19 -8 13 12 -6 44 -32 71 -58z m-2848 10 c0 -7
-39 17 -46 28 -3 6 5 3 20 -6 14 -10 26 -19 26 -22z m67 15 c-3 -8 -6 -5 -6 6
-1 11 2 17 5 13 3 -3 4 -12 1 -19z m100 16 c-3 -3 -12 -4 -19 -1 -8 3 -5 6 6
6 11 1 17 -2 13 -5z m-2550 -10 c-3 -3 -12 -4 -19 -1 -8 3 -5 6 6 6 11 1 17
-2 13 -5z m46 -1 c-7 -2 -19 -2 -25 0 -7 3 -2 5 12 5 14 0 19 -2 13 -5z m50 0
c-7 -2 -19 -2 -25 0 -7 3 -2 5 12 5 14 0 19 -2 13 -5z m1190 0 c-216 -2 -570
-2 -785 0 -216 1 -40 2 392 2 432 0 608 -1 393 -2z m1970 0 c-7 -2 -21 -2 -30
0 -10 3 -4 5 12 5 17 0 24 -2 18 -5z m70 0 c-7 -2 -19 -2 -25 0 -7 3 -2 5 12
5 14 0 19 -2 13 -5z m1304 0 c-219 -2 -575 -2 -790 0 -216 1 -36 2 398 2 435
0 611 -1 392 -2z m-2819 -10 c-10 -2 -28 -2 -40 0 -13 2 -5 4 17 4 22 1 32 -1
23 -4z m3335 0 c-7 -2 -21 -2 -30 0 -10 3 -4 5 12 5 17 0 24 -2 18 -5z m-5800
-10 c-7 -2 -19 -2 -25 0 -7 3 -2 5 12 5 14 0 19 -2 13 -5z m495 0 c-86 -2
-230 -2 -320 0 -90 1 -19 3 157 3 176 0 249 -2 163 -3z m189 1 c-3 -3 -12 -4
-19 -1 -8 3 -5 6 6 6 11 1 17 -2 13 -5z m1884 -56 c36 -35 47 -47 25 -27 -23
19 -56 48 -74 62 -19 15 -30 27 -25 27 5 0 38 -28 74 -62z m-888 45 c-90 -2
-236 -2 -325 0 -90 1 -17 3 162 3 179 0 252 -2 163 -3z m230 0 c-13 -2 -33 -2
-45 0 -13 2 -3 4 22 4 25 0 35 -2 23 -4z m1240 0 c-7 -2 -21 -2 -30 0 -10 3
-4 5 12 5 17 0 24 -2 18 -5z m74 1 c-3 -3 -12 -4 -19 -1 -8 3 -5 6 6 6 11 1
17 -2 13 -5z m191 -1 c-10 -2 -28 -2 -40 0 -13 2 -5 4 17 4 22 1 32 -1 23 -4z
m49 1 c-3 -3 -12 -4 -19 -1 -8 3 -5 6 6 6 11 1 17 -2 13 -5z m246 -1 c-7 -2
-19 -2 -25 0 -7 3 -2 5 12 5 14 0 19 -2 13 -5z m74 1 c-3 -3 -12 -4 -19 -1 -8
3 -5 6 6 6 11 1 17 -2 13 -5z m216 -1 c-7 -2 -19 -2 -25 0 -7 3 -2 5 12 5 14
0 19 -2 13 -5z m64 1 c-3 -3 -12 -4 -19 -1 -8 3 -5 6 6 6 11 1 17 -2 13 -5z
m40 0 c-3 -3 -12 -4 -19 -1 -8 3 -5 6 6 6 11 1 17 -2 13 -5z m70 0 c-3 -3 -12
-4 -19 -1 -8 3 -5 6 6 6 11 1 17 -2 13 -5z m80 0 c-3 -3 -12 -4 -19 -1 -8 3
-5 6 6 6 11 1 17 -2 13 -5z m96 -1 c-7 -2 -19 -2 -25 0 -7 3 -2 5 12 5 14 0
19 -2 13 -5z m74 1 c-3 -3 -12 -4 -19 -1 -8 3 -5 6 6 6 11 1 17 -2 13 -5z m70
0 c-3 -3 -12 -4 -19 -1 -8 3 -5 6 6 6 11 1 17 -2 13 -5z m80 0 c-3 -3 -12 -4
-19 -1 -8 3 -5 6 6 6 11 1 17 -2 13 -5z m96 -1 c-7 -2 -19 -2 -25 0 -7 3 -2 5
12 5 14 0 19 -2 13 -5z m74 1 c-3 -3 -12 -4 -19 -1 -8 3 -5 6 6 6 11 1 17 -2
13 -5z m70 0 c-3 -3 -12 -4 -19 -1 -8 3 -5 6 6 6 11 1 17 -2 13 -5z m80 0 c-3
-3 -12 -4 -19 -1 -8 3 -5 6 6 6 11 1 17 -2 13 -5z m96 -1 c-7 -2 -19 -2 -25 0
-7 3 -2 5 12 5 14 0 19 -2 13 -5z m74 1 c-3 -3 -12 -4 -19 -1 -8 3 -5 6 6 6
11 1 17 -2 13 -5z m70 0 c-3 -3 -12 -4 -19 -1 -8 3 -5 6 6 6 11 1 17 -2 13 -5z
m757 -56 c-3 -5 9 -23 28 -40 19 -18 24 -26 12 -20 -26 14 -45 36 -48 56 -1 9
-13 28 -27 43 l-24 28 32 -29 c18 -16 30 -33 27 -38z m-3561 45 c-7 -2 -21 -2
-30 0 -10 3 -4 5 12 5 17 0 24 -2 18 -5z m114 0 c-20 -2 -52 -2 -70 0 -17 2 0
4 38 4 39 0 53 -2 32 -4z m643 -30 c0 -7 -39 17 -46 28 -3 6 5 3 20 -6 14 -10
26 -19 26 -22z m2687 30 c-20 -2 -52 -2 -70 0 -17 2 0 4 38 4 39 0 53 -2 32
-4z m-3264 -13 c7 -6 23 -19 37 -30 23 -19 23 -19 -13 1 -20 11 -40 25 -43 30
-7 12 4 11 19 -1z m132 -50 c33 -33 57 -60 54 -60 -2 0 -31 27 -64 60 -33 33
-57 60 -54 60 2 0 31 -27 64 -60z m3196 43 c13 -16 12 -17 -3 -4 -10 7 -18 15
-18 17 0 8 8 3 21 -13z m-2722 -53 c11 -24 11 -24 -3 -6 -9 11 -16 24 -16 30
0 12 5 7 19 -24z m2805 14 c3 -8 2 -12 -4 -9 -6 3 -10 10 -10 16 0 14 7 11 14
-7z m131 -84 c55 -55 97 -100 95 -100 -3 0 -50 45 -105 100 -55 55 -97 100
-95 100 3 0 50 -45 105 -100z m-35 -8 c0 -8 -55 41 -69 61 -8 12 4 4 27 -18
23 -22 42 -41 42 -43z m-3375 18 c27 -27 47 -50 44 -50 -3 0 -27 23 -54 50
-27 28 -47 50 -44 50 3 0 27 -22 54 -50z m503 5 c-3 -3 -9 2 -12 12 -6 14 -5
15 5 6 7 -7 10 -15 7 -18z m-413 -25 l20 -25 -22 19 c-13 11 -23 24 -23 29 0
6 1 8 3 6 1 -2 11 -15 22 -29z m382 8 c-3 -8 -6 -5 -6 6 -1 11 2 17 5 13 3 -3
4 -12 1 -19z m-317 -120 c0 -11 -38 -10 -45 2 -3 6 1 7 9 4 24 -9 19 2 -21 48
l-37 43 47 -45 c26 -24 47 -48 47 -52z m317 60 c-3 -8 -6 -5 -6 6 -1 11 2 17
5 13 3 -3 4 -12 1 -19z m-376 -24 c9 -11 2 -9 -18 6 -18 13 -33 25 -33 27 0 8
38 -17 51 -33z"/>
<path d="M3350 6890 c-14 -10 -22 -21 -19 -24 3 -3 16 5 29 19 28 30 24 32
-10 5z"/>
<path d="M3605 6450 c3 -5 8 -10 11 -10 2 0 4 5 4 10 0 6 -5 10 -11 10 -5 0
-7 -4 -4 -10z"/>
<path d="M3911 4066 c2 -2 15 -9 29 -15 24 -11 24 -11 6 3 -16 13 -49 24 -35
12z"/>
<path d="M4020 3985 c13 -14 26 -25 28 -25 3 0 -5 11 -18 25 -13 14 -26 25
-28 25 -3 0 5 -11 18 -25z"/>
<path d="M2620 2921 c0 -5 5 -13 10 -16 6 -3 10 -2 10 4 0 5 -4 13 -10 16 -5
3 -10 2 -10 -4z"/>
<path d="M11 3387 c2 -1 13 -9 24 -17 19 -14 19 -14 6 3 -7 9 -18 17 -24 17
-6 0 -8 -1 -6 -3z"/>
<path d="M310 3096 c0 -2 8 -10 18 -17 15 -13 16 -12 3 4 -13 16 -21 21 -21
13z"/>
</g>
</svg>
