<svg id="svg" version="1.1" xmlns="http://www.w3.org/2000/svg" xmlns:xlink="http://www.w3.org/1999/xlink" width="400" height="400" viewBox="0, 0, 400,400"><g id="svgg"><path id="path0" d="M198.000 1.019 C 198.000 1.751,197.645 2.228,196.736 2.719 C 195.323 3.481,190.400 8.165,190.400 8.747 C 190.400 9.377,179.976 19.593,178.647 20.266 C 177.961 20.613,177.103 21.156,176.740 21.474 C 174.752 23.214,175.834 23.190,98.074 23.195 C 48.026 23.198,24.099 23.333,23.574 23.614 C 22.813 24.021,22.800 25.273,22.800 97.795 C 22.800 177.725,22.920 173.234,20.668 177.763 C 19.772 179.564,9.518 190.400,8.709 190.400 C 8.267 190.400,3.926 194.777,2.858 196.300 C 2.254 197.160,1.616 197.600,0.973 197.600 C 0.105 197.600,0.000 197.772,0.000 199.200 C 0.000 201.509,1.614 201.524,2.786 199.227 C 3.227 198.362,3.757 197.550,3.964 197.423 C 4.170 197.295,4.457 196.653,4.601 195.995 C 4.769 195.229,5.112 194.800,5.556 194.800 C 6.204 194.800,7.744 193.645,8.059 192.922 C 8.137 192.745,8.906 192.114,9.768 191.519 C 11.928 190.031,20.145 181.837,20.824 180.494 C 21.129 179.892,21.968 178.724,22.689 177.899 C 23.410 177.073,24.000 176.251,24.000 176.071 C 24.000 175.507,175.114 24.667,176.285 24.063 C 176.898 23.746,178.076 22.883,178.901 22.144 C 179.727 21.405,180.586 20.800,180.810 20.800 C 181.450 20.800,190.485 11.484,191.600 9.675 C 192.150 8.783,193.000 7.867,193.489 7.640 C 193.978 7.413,194.494 6.765,194.636 6.199 C 194.904 5.132,195.893 4.568,199.832 3.238 C 200.961 2.857,202.116 2.691,202.432 2.863 C 202.744 3.034,203.960 3.568,205.134 4.051 C 207.203 4.901,209.310 7.027,212.706 11.692 C 213.204 12.376,214.133 13.253,214.770 13.640 C 215.407 14.028,216.034 14.672,216.163 15.072 C 216.292 15.473,216.944 16.110,217.611 16.488 C 218.278 16.867,219.133 17.722,219.512 18.389 C 219.890 19.056,220.474 19.691,220.809 19.799 C 221.143 19.907,222.015 20.542,222.746 21.210 C 223.477 21.877,225.003 23.019,226.137 23.747 C 229.408 25.845,378.154 174.741,379.363 177.127 C 380.007 178.398,383.335 182.073,389.314 188.118 C 398.437 197.340,400.000 198.522,400.000 196.200 C 400.000 195.492,399.783 195.200,399.257 195.200 C 398.518 195.200,384.132 180.903,381.839 177.891 C 379.519 174.841,379.613 178.217,379.606 98.133 C 379.603 57.616,379.491 24.181,379.357 23.833 C 379.137 23.259,372.243 23.200,305.334 23.200 C 225.124 23.200,229.709 23.336,225.315 20.830 C 222.656 19.314,215.433 12.517,212.767 9.021 C 210.109 5.536,208.667 4.139,206.500 2.951 C 204.931 2.091,204.401 1.573,204.400 0.900 C 204.400 0.042,204.252 0.000,201.200 0.000 C 198.038 0.000,198.000 0.012,198.000 1.019 M199.815 25.623 C 197.281 26.887,189.530 35.030,189.054 36.929 C 188.678 38.427,38.621 188.286,36.491 189.291 C 35.551 189.734,34.471 190.480,34.091 190.948 C 33.711 191.417,32.770 192.272,32.000 192.848 C 24.178 198.702,23.263 202.092,28.165 207.055 C 29.064 207.965,30.156 209.100,30.592 209.576 C 31.027 210.052,32.039 210.837,32.841 211.321 C 33.642 211.804,35.071 212.740,36.016 213.400 C 39.053 215.521,188.707 365.291,189.015 366.517 C 189.358 367.883,192.022 370.838,201.684 380.568 C 209.804 388.745,209.810 388.754,209.491 392.727 C 209.294 395.174,209.163 395.480,207.839 396.592 C 206.164 397.998,205.789 400.000,207.200 400.000 C 207.693 400.000,208.003 399.731,208.007 399.300 C 208.011 398.915,208.452 398.185,208.987 397.678 C 210.392 396.345,211.719 392.564,211.396 390.811 C 210.811 387.626,209.705 386.183,201.561 377.972 C 197.072 373.447,192.793 368.978,192.052 368.042 C 189.478 364.791,189.600 367.509,189.600 313.396 C 189.600 278.363,189.472 263.752,189.157 262.848 C 188.592 261.228,187.342 260.596,183.018 259.747 C 180.540 259.260,179.145 258.751,178.176 257.981 C 177.427 257.385,176.037 256.703,175.088 256.464 C 174.138 256.225,172.740 255.573,171.981 255.016 C 171.221 254.459,169.820 253.627,168.866 253.168 C 167.913 252.709,166.827 252.033,166.453 251.666 C 166.079 251.300,165.059 250.512,164.187 249.915 C 161.780 248.269,155.077 241.635,153.765 239.600 C 153.126 238.610,152.309 237.580,151.949 237.311 C 151.590 237.042,151.011 236.111,150.664 235.243 C 150.317 234.375,149.507 233.065,148.865 232.332 C 148.222 231.600,147.405 230.137,147.047 229.082 C 146.690 228.027,146.020 226.654,145.559 226.030 C 145.098 225.406,144.377 223.389,143.957 221.548 C 143.016 217.420,142.103 215.269,140.800 214.113 L 139.800 213.225 90.600 213.195 C 39.704 213.164,39.211 213.149,36.781 211.558 C 36.241 211.204,35.381 210.783,34.868 210.621 C 32.195 209.775,25.746 202.427,26.473 201.054 C 27.190 199.701,32.422 194.437,34.400 193.079 C 35.390 192.399,36.380 191.609,36.600 191.322 C 37.892 189.642,39.195 189.600,90.639 189.600 C 132.364 189.600,139.804 189.515,140.747 189.028 C 142.093 188.332,142.951 186.467,143.957 182.052 C 144.377 180.211,145.111 178.176,145.588 177.530 C 146.066 176.885,146.724 175.456,147.051 174.354 C 147.378 173.253,148.227 171.688,148.939 170.876 C 149.651 170.064,150.447 168.905,150.708 168.299 C 152.009 165.287,161.684 154.804,164.515 153.340 C 165.135 153.020,165.989 152.411,166.412 151.988 C 166.835 151.565,167.784 150.967,168.520 150.659 C 169.256 150.352,170.476 149.558,171.231 148.895 C 171.986 148.232,173.508 147.421,174.614 147.092 C 175.719 146.764,177.270 146.057,178.061 145.520 C 178.934 144.928,180.871 144.275,182.998 143.857 C 187.342 143.004,188.591 142.374,189.157 140.752 C 189.472 139.848,189.600 125.267,189.600 90.317 C 189.600 36.691,189.515 38.653,191.968 35.640 C 198.910 27.110,201.252 25.617,203.902 28.031 C 207.460 31.272,209.714 33.798,210.297 35.200 C 210.617 35.970,211.177 36.934,211.540 37.342 C 212.145 38.022,212.209 42.329,212.309 88.844 L 212.418 139.605 214.109 141.342 C 215.676 142.952,216.063 143.130,219.400 143.778 C 221.767 144.238,223.835 144.943,225.438 145.839 C 226.780 146.587,228.154 147.200,228.492 147.200 C 228.830 147.200,230.290 148.010,231.736 149.000 C 233.182 149.990,234.546 150.800,234.768 150.800 C 234.990 150.800,235.763 151.303,236.486 151.918 C 237.209 152.532,238.250 153.347,238.800 153.728 C 243.054 156.674,252.800 167.352,252.800 169.067 C 252.800 169.282,253.430 170.346,254.201 171.429 C 254.971 172.512,255.872 174.332,256.204 175.473 C 256.536 176.614,257.269 178.096,257.833 178.767 C 258.555 179.625,259.077 181.045,259.591 183.555 C 260.608 188.519,260.679 188.680,262.076 189.167 C 262.942 189.468,278.275 189.605,312.560 189.618 C 351.098 189.631,362.220 189.746,363.731 190.144 C 366.373 190.841,368.216 192.328,376.076 200.100 C 379.803 203.785,382.981 206.800,383.140 206.800 C 383.298 206.800,383.736 207.323,384.114 207.962 C 386.596 212.164,392.935 212.833,397.473 209.372 C 398.173 208.837,399.029 208.400,399.373 208.400 C 399.775 208.400,400.000 208.041,400.000 207.400 C 400.000 205.839,397.806 205.974,396.881 207.592 C 395.991 209.149,394.440 209.753,391.407 209.725 C 388.099 209.694,387.846 209.524,381.400 203.030 C 378.320 199.927,374.450 196.163,372.800 194.665 C 371.150 193.167,369.260 191.428,368.600 190.801 C 367.940 190.173,366.770 189.391,366.000 189.064 C 363.535 188.014,211.200 34.980,211.200 33.553 C 211.200 32.929,204.809 26.551,203.114 25.484 C 201.784 24.646,201.771 24.647,199.815 25.623 M194.940 161.622 C 193.587 161.798,191.748 162.316,190.853 162.773 C 189.958 163.230,188.179 163.847,186.901 164.146 C 184.207 164.774,182.051 165.801,181.744 166.602 C 181.626 166.909,180.870 167.378,180.065 167.643 C 176.912 168.679,169.261 176.217,167.566 179.958 C 167.207 180.751,166.524 181.746,166.048 182.170 C 165.558 182.606,164.756 184.339,164.197 186.173 C 163.654 187.952,162.948 189.781,162.628 190.238 C 160.581 193.162,160.637 209.004,162.710 213.232 C 163.419 214.679,164.000 216.141,164.000 216.481 C 164.000 217.751,165.271 220.638,166.342 221.799 C 166.952 222.459,167.657 223.488,167.910 224.085 C 169.170 227.063,177.380 235.082,180.068 235.961 C 180.875 236.225,181.762 236.714,182.039 237.047 C 182.775 237.934,184.456 238.720,186.659 239.208 C 187.727 239.444,189.320 239.966,190.200 240.367 C 194.061 242.125,194.489 242.197,201.200 242.198 C 207.776 242.200,210.121 241.844,212.226 240.523 C 212.680 240.238,214.450 239.648,216.159 239.211 C 218.058 238.725,219.757 238.002,220.530 237.352 C 221.225 236.767,222.530 235.973,223.429 235.587 C 225.188 234.834,225.983 234.183,230.000 230.212 C 233.452 226.800,234.608 225.312,236.053 222.420 C 236.718 221.089,237.409 220.000,237.588 220.000 C 238.036 220.000,238.352 219.127,239.257 215.404 C 239.684 213.646,240.261 211.846,240.540 211.404 C 241.633 209.665,242.053 206.988,242.053 201.751 C 242.053 196.435,241.805 194.921,240.420 191.800 C 240.030 190.920,239.492 189.210,239.225 188.000 C 238.637 185.335,238.003 183.600,237.617 183.600 C 237.460 183.600,236.817 182.565,236.189 181.300 C 235.562 180.035,234.456 178.280,233.732 177.400 C 229.700 172.501,228.865 171.621,227.471 170.808 C 226.631 170.318,225.852 169.679,225.741 169.389 C 225.629 169.099,224.805 168.569,223.908 168.210 C 223.011 167.851,221.572 166.954,220.710 166.216 C 219.584 165.252,218.363 164.698,216.381 164.250 C 214.863 163.907,212.904 163.261,212.028 162.814 C 209.152 161.347,201.269 160.797,194.940 161.622 M206.558 175.329 C 207.387 176.441,207.402 176.798,207.519 198.928 C 207.592 212.651,207.788 221.548,208.024 221.784 C 208.236 221.996,210.915 222.267,213.977 222.386 C 220.735 222.648,221.722 223.109,221.920 226.088 C 222.026 227.697,221.900 228.013,220.770 228.964 L 219.500 230.032 202.592 229.916 C 183.213 229.783,183.994 229.929,184.006 226.438 C 184.017 223.118,184.858 222.714,192.400 222.408 C 195.590 222.278,198.425 222.033,198.700 221.863 C 199.451 221.397,199.424 185.659,198.671 184.630 C 198.062 183.796,196.538 183.710,190.950 184.195 C 183.636 184.830,181.176 181.635,187.592 179.834 C 188.887 179.471,190.723 178.743,191.673 178.216 C 192.623 177.690,194.570 177.063,196.000 176.823 C 199.625 176.215,202.000 175.557,202.000 175.159 C 202.000 174.779,204.308 174.027,205.158 174.132 C 205.464 174.169,206.094 174.708,206.558 175.329 M0.000 204.373 C 0.000 205.788,0.110 205.960,1.088 206.073 C 1.830 206.160,2.524 206.709,3.272 207.800 C 3.875 208.680,5.470 210.300,6.817 211.400 C 11.760 215.438,19.287 223.225,20.497 225.554 C 22.822 230.028,22.691 225.819,22.987 305.200 C 23.237 372.075,23.319 378.644,23.907 379.100 C 24.418 379.496,39.865 379.600,98.057 379.600 C 180.861 379.600,174.413 379.352,178.333 382.690 C 183.442 387.040,194.400 398.246,194.400 399.121 C 194.400 399.831,194.631 400.000,195.600 400.000 C 196.577 400.000,196.801 399.833,196.803 399.100 C 196.807 397.790,179.265 380.586,176.800 379.482 C 175.388 378.850,162.399 366.081,116.533 320.238 C 84.377 288.097,57.737 261.504,57.333 261.142 C 56.701 260.575,48.649 252.527,47.586 251.400 C 45.832 249.539,41.572 245.275,40.961 244.769 C 40.543 244.421,39.104 242.981,37.765 241.569 C 36.426 240.156,34.266 237.968,32.965 236.707 C 28.630 232.506,24.267 227.916,23.405 226.651 C 20.488 222.368,19.188 220.832,14.960 216.670 C 12.370 214.121,9.745 211.826,9.126 211.569 C 8.507 211.313,8.000 210.952,8.000 210.767 C 8.000 210.185,6.280 208.800,5.556 208.800 C 5.127 208.800,4.770 208.382,4.618 207.700 C 3.732 203.721,0.000 201.033,0.000 204.373 M261.961 214.115 C 260.693 214.969,260.549 215.301,259.783 219.103 C 259.227 221.863,258.689 223.470,258.114 224.088 C 257.647 224.590,256.884 226.139,256.418 227.531 C 255.579 230.038,253.539 233.545,252.130 234.904 C 251.096 235.902,246.103 240.879,243.461 243.547 C 242.233 244.786,240.150 246.790,238.832 248.000 C 237.513 249.210,236.098 250.740,235.687 251.400 C 235.276 252.060,234.413 252.862,233.770 253.182 C 233.126 253.502,232.228 254.087,231.773 254.483 C 231.318 254.878,229.796 255.653,228.391 256.203 C 226.986 256.754,225.198 257.640,224.418 258.173 C 223.539 258.773,221.633 259.404,219.400 259.835 C 216.112 260.470,215.653 260.676,214.100 262.213 L 212.400 263.895 212.400 321.333 C 212.400 377.712,212.414 378.779,213.174 379.186 C 213.699 379.467,237.642 379.600,287.754 379.600 C 366.155 379.600,364.243 379.557,367.039 381.389 C 368.919 382.620,384.800 398.644,384.800 399.309 C 384.800 399.779,385.119 400.000,385.800 400.000 C 386.566 400.000,386.800 399.793,386.800 399.112 C 386.800 397.800,369.230 380.551,366.800 379.477 C 364.858 378.619,240.937 255.183,239.301 252.478 L 238.502 251.156 243.788 245.878 C 251.644 238.033,250.964 238.553,252.255 239.399 C 255.011 241.205,378.694 365.445,379.492 367.208 C 380.062 368.469,382.972 371.697,389.312 378.100 C 398.644 387.526,400.000 388.528,400.000 386.000 C 400.000 385.043,399.828 384.800,399.149 384.800 C 398.213 384.800,382.988 369.689,381.417 367.200 C 379.559 364.258,379.600 366.031,379.600 288.256 C 379.600 247.671,379.491 214.181,379.357 213.833 C 379.137 213.260,373.643 213.200,321.216 213.200 L 263.318 213.200 261.961 214.115 M397.200 397.200 C 396.140 398.260,396.122 400.000,397.172 400.000 C 397.668 400.000,397.990 399.678,398.072 399.100 C 398.154 398.522,398.522 398.154,399.100 398.072 C 399.678 397.990,400.000 397.668,400.000 397.172 C 400.000 396.122,398.260 396.140,397.200 397.200 " stroke="none" fill="#838383" fill-rule="evenodd"></path><path id="path1" d="M190.000 0.920 C 190.000 1.426,189.784 2.056,189.520 2.320 C 189.149 2.691,167.502 2.800,94.520 2.800 L 0.000 2.800 0.000 99.400 L 0.000 196.000 1.020 196.000 C 1.802 196.000,2.173 195.683,2.608 194.644 C 2.983 193.745,3.589 193.143,4.403 192.859 C 5.212 192.577,5.774 192.022,6.049 191.232 C 6.279 190.572,6.839 189.914,7.295 189.770 C 8.020 189.540,9.423 188.357,11.892 185.894 C 15.048 182.746,16.400 181.235,16.400 180.857 C 16.400 180.614,16.813 180.312,17.318 180.185 C 19.527 179.630,19.383 184.692,19.600 99.942 C 19.795 23.696,19.820 21.662,20.562 20.842 L 21.324 20.000 98.402 20.000 C 152.597 20.000,175.884 19.871,176.840 19.567 C 178.828 18.934,180.000 18.315,180.000 17.898 C 180.000 17.408,184.698 12.800,185.198 12.800 C 185.413 12.800,186.044 12.080,186.600 11.200 C 187.156 10.320,187.846 9.600,188.135 9.600 C 188.423 9.600,189.014 8.925,189.448 8.100 C 189.881 7.275,190.738 6.358,191.352 6.062 C 191.966 5.766,192.654 4.991,192.881 4.340 C 193.169 3.514,193.763 2.968,194.847 2.535 C 197.919 1.305,197.071 0.000,193.200 0.000 C 190.128 0.000,190.000 0.037,190.000 0.920 M206.800 0.986 C 206.800 2.174,208.077 2.968,209.437 2.626 C 211.434 2.125,210.757 0.000,208.600 0.000 C 206.954 0.000,206.800 0.084,206.800 0.986 M210.944 3.401 C 210.543 4.446,211.144 5.846,212.198 6.327 C 212.758 6.582,213.390 7.248,213.603 7.808 C 213.816 8.368,215.003 9.765,216.241 10.913 C 219.733 14.152,222.446 16.914,223.085 17.881 C 224.540 20.083,221.409 20.000,303.343 20.000 C 384.286 20.000,380.406 19.895,381.180 22.115 C 381.468 22.940,381.600 47.316,381.600 99.431 L 381.600 175.542 382.536 176.279 C 383.052 176.684,383.702 177.462,383.983 178.008 C 384.263 178.553,385.147 179.641,385.946 180.424 C 386.746 181.207,388.425 182.917,389.677 184.224 C 390.930 185.531,393.000 187.586,394.277 188.791 C 395.555 189.995,396.912 191.480,397.294 192.091 C 397.754 192.825,398.328 193.200,398.994 193.200 L 400.000 193.200 400.000 98.000 L 400.000 2.800 305.587 2.800 C 221.972 2.800,211.149 2.869,210.944 3.401 M200.763 28.191 C 200.234 28.732,198.495 30.452,196.900 32.012 C 195.305 33.573,194.000 35.117,194.000 35.444 C 194.000 35.771,193.505 36.497,192.900 37.058 L 191.800 38.077 191.679 87.938 C 191.612 115.362,191.667 138.724,191.802 139.853 L 192.046 141.906 200.683 141.853 C 208.923 141.802,209.334 141.763,209.632 141.000 C 209.803 140.560,209.948 117.250,209.954 89.200 C 209.966 33.838,209.999 34.729,207.860 33.678 C 207.275 33.390,206.525 32.628,206.192 31.984 C 205.859 31.340,205.062 30.542,204.422 30.211 C 203.781 29.880,203.147 29.263,203.013 28.841 C 202.538 27.345,201.801 27.132,200.763 28.191 M36.856 193.213 C 36.336 193.646,35.666 194.000,35.366 194.000 C 34.544 194.000,27.209 201.557,27.442 202.164 C 27.552 202.452,28.063 202.913,28.577 203.188 C 29.091 203.463,29.700 204.101,29.930 204.606 C 30.160 205.111,30.886 205.842,31.543 206.230 C 32.200 206.618,32.963 207.357,33.239 207.873 C 34.400 210.042,33.288 210.000,89.473 210.000 C 130.568 210.000,141.208 209.897,141.238 209.500 C 141.388 207.535,141.421 194.381,141.278 193.500 L 141.100 192.400 89.450 192.413 C 38.688 192.426,37.784 192.440,36.856 193.213 M262.030 192.773 C 261.414 193.163,261.165 208.573,261.760 209.535 C 261.976 209.885,276.538 210.003,320.524 210.013 C 368.341 210.023,379.127 210.122,379.696 210.554 C 381.689 212.067,381.600 208.367,381.600 289.758 L 381.600 365.542 382.536 366.279 C 383.052 366.684,383.705 367.462,383.988 368.008 C 384.271 368.553,385.829 370.288,387.451 371.862 C 389.073 373.436,390.400 374.917,390.400 375.152 C 390.400 375.388,390.895 375.892,391.500 376.271 C 392.105 376.650,393.965 378.364,395.633 380.080 C 397.301 381.796,398.966 383.200,399.333 383.200 C 399.954 383.200,400.000 377.208,400.000 296.800 L 400.000 210.400 399.186 210.400 C 398.344 210.400,396.771 211.276,395.430 212.492 C 393.593 214.157,389.012 213.936,387.066 212.089 C 386.370 211.429,385.415 210.773,384.945 210.631 C 384.474 210.490,383.626 209.675,383.060 208.819 C 382.494 207.964,381.691 207.156,381.276 207.024 C 380.861 206.892,380.314 206.330,380.061 205.774 C 379.808 205.218,379.091 204.471,378.468 204.113 C 377.846 203.756,377.043 202.953,376.685 202.328 C 376.326 201.704,375.602 201.029,375.075 200.829 C 374.548 200.628,373.736 199.818,373.270 199.029 C 372.804 198.239,371.988 197.395,371.456 197.153 C 370.924 196.910,370.298 196.294,370.066 195.784 C 369.833 195.274,368.846 194.504,367.873 194.074 C 366.900 193.643,365.979 193.090,365.828 192.845 C 365.483 192.288,262.910 192.216,262.030 192.773 M0.000 257.000 L 0.000 306.800 0.981 306.800 C 2.782 306.800,2.795 307.147,2.798 354.900 L 2.800 400.000 98.000 400.000 C 190.268 400.000,193.200 399.977,193.200 399.262 C 193.200 398.462,192.021 397.200,191.274 397.200 C 191.019 397.200,190.356 396.480,189.800 395.600 C 189.244 394.720,188.526 394.000,188.204 394.000 C 187.882 394.000,187.299 393.506,186.909 392.901 C 185.995 391.484,182.516 388.005,181.099 387.091 C 180.494 386.701,180.000 386.113,180.000 385.786 C 180.000 385.458,179.190 384.796,178.200 384.315 C 177.210 383.834,176.397 383.341,176.394 383.220 C 176.354 381.779,177.174 381.811,131.515 381.494 C 107.252 381.325,72.689 381.055,54.709 380.894 L 22.018 380.600 21.044 379.600 L 20.070 378.600 19.719 302.000 C 19.526 259.870,19.223 225.089,19.045 224.708 C 18.866 224.328,18.108 223.638,17.360 223.175 C 16.612 222.713,16.000 222.082,16.000 221.772 C 16.000 221.463,15.294 220.765,14.432 220.220 C 13.569 219.676,12.748 218.867,12.607 218.423 C 12.467 217.980,11.838 217.313,11.210 216.942 C 10.582 216.571,9.879 215.853,9.648 215.345 C 9.416 214.837,8.609 214.164,7.853 213.848 C 7.096 213.532,6.237 212.771,5.940 212.154 C 5.643 211.538,4.967 210.932,4.438 210.808 C 3.426 210.570,3.049 210.104,2.410 208.300 C 2.124 207.493,1.750 207.200,1.010 207.200 L 0.000 207.200 0.000 257.000 M191.792 262.947 C 191.096 266.796,191.804 365.658,192.530 366.065 C 192.931 366.289,193.593 367.250,194.000 368.200 C 194.421 369.183,195.100 370.041,195.575 370.192 C 196.033 370.338,196.680 370.981,197.011 371.622 C 197.342 372.262,198.147 373.063,198.800 373.400 C 199.453 373.737,200.268 374.558,200.612 375.224 C 200.957 375.890,201.693 376.642,202.249 376.895 C 202.805 377.149,203.525 377.869,203.849 378.495 C 204.173 379.122,204.893 379.842,205.449 380.095 C 206.005 380.349,206.721 381.060,207.040 381.677 C 207.358 382.293,208.245 383.059,209.010 383.378 C 209.896 383.749,210.400 384.231,210.400 384.709 C 210.400 385.122,211.019 386.330,211.776 387.394 C 214.107 390.674,214.040 392.309,211.398 396.600 C 210.856 397.480,210.410 398.605,210.407 399.100 L 210.400 400.000 296.600 400.000 L 382.800 400.000 382.800 398.981 C 382.800 398.283,382.444 397.759,381.668 397.313 C 381.046 396.956,380.244 396.154,379.887 395.532 C 379.529 394.909,378.791 394.196,378.246 393.948 C 377.700 393.700,377.046 392.995,376.793 392.382 C 376.539 391.770,375.798 391.048,375.147 390.778 C 374.495 390.508,373.692 389.765,373.362 389.126 C 373.032 388.488,372.307 387.758,371.751 387.505 C 371.195 387.251,370.477 386.535,370.155 385.913 C 369.808 385.243,368.930 384.525,368.000 384.153 C 367.137 383.808,366.329 383.208,366.206 382.820 C 365.831 381.639,363.663 381.606,285.910 381.603 L 211.221 381.600 210.610 380.420 C 210.072 379.379,209.997 372.418,209.972 321.320 C 209.956 289.464,209.803 263.040,209.632 262.600 C 209.334 261.837,208.923 261.798,200.669 261.747 L 192.019 261.694 191.792 262.947 " stroke="none" fill="#0c0d0c" fill-rule="evenodd"></path><path id="path2" d="M201.000 2.817 C 200.560 2.980,199.060 3.539,197.666 4.057 C 195.608 4.823,195.033 5.237,194.603 6.261 C 194.311 6.955,193.742 7.634,193.337 7.769 C 192.931 7.905,192.150 8.754,191.600 9.657 C 190.497 11.467,181.460 20.800,180.810 20.800 C 180.586 20.800,179.727 21.405,178.901 22.144 C 178.076 22.883,176.898 23.746,176.285 24.063 C 175.114 24.667,24.000 175.507,24.000 176.071 C 24.000 176.251,23.410 177.073,22.689 177.899 C 21.968 178.724,21.129 179.892,20.824 180.494 C 20.145 181.837,11.928 190.031,9.768 191.519 C 8.906 192.114,8.137 192.745,8.059 192.922 C 7.744 193.645,6.204 194.800,5.556 194.800 C 5.112 194.800,4.769 195.229,4.601 195.995 C 4.457 196.653,4.170 197.295,3.964 197.423 C 3.757 197.550,3.227 198.362,2.786 199.227 C 2.178 200.419,1.743 200.800,0.992 200.800 C 0.201 200.800,0.000 201.002,0.000 201.800 C 0.000 202.600,0.200 202.800,0.999 202.800 C 2.089 202.800,4.147 205.586,4.618 207.700 C 4.770 208.382,5.127 208.800,5.556 208.800 C 6.280 208.800,8.000 210.185,8.000 210.767 C 8.000 210.952,8.507 211.313,9.126 211.569 C 9.745 211.826,12.370 214.121,14.960 216.670 C 19.188 220.832,20.488 222.368,23.405 226.651 C 24.267 227.916,28.630 232.506,32.965 236.707 C 34.266 237.968,36.426 240.156,37.765 241.569 C 39.104 242.981,40.543 244.421,40.961 244.769 C 41.572 245.275,45.832 249.539,47.586 251.400 C 48.649 252.527,56.701 260.575,57.333 261.142 C 57.737 261.504,84.377 288.097,116.533 320.238 C 162.399 366.081,175.388 378.850,176.800 379.482 C 179.265 380.586,196.807 397.790,196.803 399.100 C 196.800 399.983,196.888 400.000,201.600 400.000 L 206.400 400.000 206.400 398.900 C 206.400 398.128,206.829 397.440,207.839 396.592 C 209.163 395.480,209.294 395.174,209.491 392.727 C 209.810 388.754,209.804 388.745,201.684 380.568 C 192.022 370.838,189.358 367.883,189.015 366.517 C 188.707 365.291,39.053 215.521,36.016 213.400 C 35.071 212.740,33.642 211.804,32.841 211.321 C 32.039 210.837,31.027 210.052,30.592 209.576 C 30.156 209.100,29.064 207.965,28.165 207.055 C 23.263 202.092,24.178 198.702,32.000 192.848 C 32.770 192.272,33.711 191.417,34.091 190.948 C 34.471 190.480,35.551 189.734,36.491 189.291 C 38.621 188.286,188.678 38.427,189.054 36.929 C 189.186 36.402,190.772 34.312,192.577 32.285 C 198.422 25.726,200.791 24.171,203.000 25.443 C 204.660 26.399,211.200 32.868,211.200 33.553 C 211.200 34.980,363.535 188.014,366.000 189.064 C 366.770 189.391,367.940 190.173,368.600 190.801 C 369.260 191.428,371.150 193.167,372.800 194.665 C 374.450 196.163,378.320 199.927,381.400 203.030 C 387.846 209.524,388.099 209.694,391.407 209.725 C 394.440 209.753,395.991 209.149,396.881 207.592 C 397.403 206.679,397.848 206.400,398.781 206.400 L 400.000 206.400 400.000 201.800 C 400.000 197.375,399.968 197.200,399.149 197.200 C 397.927 197.200,380.657 179.680,379.363 177.127 C 378.154 174.741,229.408 25.845,226.137 23.747 C 225.003 23.019,223.477 21.877,222.746 21.210 C 222.015 20.542,221.143 19.907,220.809 19.799 C 220.474 19.691,219.890 19.056,219.512 18.389 C 219.133 17.722,218.278 16.867,217.611 16.488 C 216.944 16.110,216.292 15.473,216.163 15.072 C 216.034 14.672,215.407 14.028,214.770 13.640 C 214.133 13.253,213.204 12.376,212.706 11.692 C 209.311 7.028,207.203 4.901,205.134 4.050 C 203.960 3.568,202.730 3.025,202.400 2.846 C 202.070 2.666,201.440 2.653,201.000 2.817 M244.691 244.967 L 238.488 251.134 239.294 252.467 C 240.935 255.180,364.853 378.617,366.800 379.477 C 369.230 380.551,386.800 397.800,386.800 399.112 C 386.800 399.980,386.908 400.000,391.600 400.000 L 396.400 400.000 396.400 399.000 C 396.400 397.716,397.716 396.400,399.000 396.400 L 400.000 396.400 400.000 391.800 C 400.000 387.395,399.964 387.200,399.161 387.200 C 397.909 387.200,380.555 369.561,379.491 367.207 C 378.860 365.811,364.846 351.581,316.070 302.807 C 259.153 245.892,251.970 238.811,251.147 238.803 C 251.007 238.801,248.102 241.575,244.691 244.967 " stroke="none" fill="#d5d5d5" fill-rule="evenodd"></path><path id="path3" d="M209.439 141.494 C 209.271 141.662,205.225 141.816,200.448 141.836 C 191.900 141.871,191.733 141.888,189.981 142.892 C 188.950 143.482,186.721 144.179,184.690 144.545 C 182.752 144.894,180.423 145.611,179.490 146.144 C 178.561 146.675,176.849 147.416,175.688 147.791 C 174.526 148.166,173.012 148.951,172.323 149.536 C 171.635 150.121,170.401 150.960,169.582 151.400 C 163.468 154.684,153.998 164.084,151.166 169.681 C 150.687 170.626,150.048 171.545,149.745 171.721 C 149.105 172.095,147.600 174.906,147.600 175.728 C 147.600 176.036,147.064 177.292,146.409 178.520 C 145.753 179.748,144.857 182.405,144.416 184.425 C 143.975 186.444,143.129 188.930,142.535 189.948 L 141.455 191.800 141.384 201.146 L 141.313 210.492 142.475 212.889 C 143.113 214.208,143.989 217.003,144.421 219.101 C 144.852 221.198,145.550 223.474,145.972 224.157 C 146.394 224.841,147.127 226.438,147.600 227.706 C 148.074 228.975,148.914 230.550,149.466 231.206 C 150.019 231.862,150.950 233.290,151.535 234.379 C 154.517 239.923,165.005 250.205,170.131 252.611 C 170.829 252.938,172.012 253.655,172.760 254.204 C 173.509 254.753,174.855 255.399,175.752 255.641 C 176.648 255.882,178.466 256.660,179.791 257.368 C 181.244 258.145,183.391 258.859,185.200 259.168 C 186.859 259.451,188.993 260.136,189.975 260.700 C 192.677 262.255,208.679 262.396,211.748 260.892 C 212.819 260.367,215.159 259.668,216.948 259.339 C 218.825 258.993,221.343 258.167,222.903 257.385 C 224.390 256.639,226.298 255.843,227.143 255.615 C 227.988 255.388,229.291 254.754,230.040 254.207 C 230.788 253.660,232.138 252.868,233.039 252.446 C 233.941 252.025,235.024 251.241,235.447 250.704 C 235.869 250.167,236.662 249.494,237.208 249.208 C 238.196 248.691,238.772 248.164,243.472 243.469 C 247.472 239.473,248.212 238.665,249.025 237.400 C 249.449 236.740,250.203 235.871,250.700 235.469 C 251.197 235.067,251.980 233.865,252.439 232.798 C 252.898 231.730,253.622 230.543,254.046 230.158 C 254.471 229.774,255.108 228.456,255.461 227.230 C 255.814 226.003,256.692 223.905,257.411 222.566 C 258.255 220.995,258.878 219.081,259.170 217.166 C 259.419 215.535,260.108 213.210,260.701 212.000 C 261.294 210.790,261.715 209.620,261.637 209.400 C 261.558 209.180,261.494 205.168,261.493 200.485 C 261.492 192.672,261.428 191.889,260.718 190.986 C 260.292 190.445,259.622 188.398,259.228 186.436 C 258.798 184.294,257.950 181.777,257.104 180.135 C 256.330 178.631,255.570 176.814,255.416 176.098 C 255.262 175.382,254.531 173.917,253.792 172.843 C 253.053 171.768,252.180 170.249,251.853 169.466 C 251.527 168.684,250.886 167.811,250.430 167.526 C 249.973 167.241,249.600 166.780,249.600 166.502 C 249.600 165.940,242.762 158.148,241.438 157.200 C 240.977 156.870,239.996 156.015,239.258 155.300 C 238.519 154.585,237.692 154.000,237.420 154.000 C 237.147 154.000,236.581 153.614,236.162 153.142 C 235.743 152.670,234.590 151.925,233.600 151.486 C 232.610 151.047,231.231 150.193,230.537 149.588 C 229.842 148.983,228.312 148.178,227.137 147.799 C 225.961 147.420,224.267 146.691,223.371 146.180 C 222.475 145.668,219.911 144.882,217.673 144.434 C 213.934 143.684,210.531 142.406,209.973 141.540 C 209.848 141.347,209.608 141.326,209.439 141.494 M208.761 160.819 C 210.716 161.064,212.867 161.623,213.950 162.168 C 214.968 162.679,216.793 163.383,218.006 163.733 C 219.220 164.082,221.187 165.095,222.378 165.984 C 223.570 166.873,224.704 167.600,224.899 167.600 C 225.737 167.600,233.600 174.707,233.600 175.464 C 233.600 175.690,233.979 176.219,234.443 176.638 C 234.906 177.057,235.651 178.120,236.097 179.000 C 236.544 179.880,237.329 181.102,237.843 181.716 C 238.356 182.330,239.161 184.127,239.632 185.709 C 240.103 187.291,240.927 189.422,241.461 190.445 C 243.302 193.966,243.571 209.113,241.849 212.300 C 240.625 214.567,240.112 215.859,239.618 217.923 C 239.338 219.091,238.704 220.531,238.208 221.123 C 237.713 221.716,236.845 223.100,236.280 224.200 C 234.385 227.889,227.582 234.705,224.000 236.503 C 223.230 236.889,221.988 237.655,221.240 238.204 C 220.491 238.753,219.141 239.380,218.240 239.598 C 217.338 239.816,215.520 240.541,214.200 241.208 C 209.063 243.805,193.994 243.945,189.205 241.441 C 188.173 240.901,186.339 240.172,185.129 239.820 C 183.919 239.469,182.315 238.717,181.565 238.151 C 180.814 237.585,179.436 236.786,178.503 236.376 C 176.539 235.514,167.857 227.057,167.397 225.558 C 167.235 225.031,166.506 223.864,165.777 222.964 C 165.048 222.065,164.080 220.225,163.626 218.876 C 163.171 217.527,162.448 215.743,162.018 214.912 C 159.645 210.321,159.729 193.239,162.149 188.253 C 162.696 187.124,163.429 185.292,163.777 184.183 C 164.124 183.074,165.122 181.184,165.993 179.983 C 166.864 178.782,168.077 177.106,168.689 176.258 C 170.765 173.378,176.643 167.948,178.430 167.260 C 178.964 167.054,180.104 166.323,180.965 165.635 C 181.825 164.948,183.507 164.101,184.702 163.753 C 185.897 163.406,187.853 162.674,189.048 162.127 C 192.521 160.536,201.669 159.929,208.761 160.819 M204.276 176.060 C 203.878 176.283,201.538 176.820,199.076 177.253 C 195.984 177.797,194.167 178.334,193.200 178.992 C 192.430 179.516,191.080 180.071,190.200 180.226 C 188.180 180.582,185.600 181.584,185.600 182.014 C 185.600 183.646,189.516 183.897,194.343 182.573 C 200.966 180.758,200.800 180.219,200.800 203.545 L 200.800 221.535 199.453 222.367 C 198.282 223.091,197.471 223.200,193.261 223.200 C 186.658 223.200,185.200 223.754,185.200 226.264 C 185.200 229.179,185.329 229.200,203.298 229.200 C 220.822 229.200,220.400 229.274,220.400 226.188 C 220.400 223.613,219.402 223.202,213.120 223.191 C 209.078 223.184,208.041 223.059,207.310 222.491 L 206.421 221.800 206.310 199.800 C 206.192 176.184,206.094 175.039,204.276 176.060 " stroke="none" fill="#058407" fill-rule="evenodd"></path><path id="path4" d="M0.000 1.400 L 0.000 2.800 94.520 2.800 C 167.502 2.800,189.149 2.691,189.520 2.320 C 189.784 2.056,190.000 1.426,190.000 0.920 L 190.000 0.000 95.000 0.000 L 0.000 0.000 0.000 1.400 M196.400 0.957 C 196.400 1.694,196.045 2.055,194.847 2.535 C 193.763 2.968,193.169 3.514,192.881 4.340 C 192.654 4.991,191.966 5.766,191.352 6.062 C 190.738 6.358,189.881 7.275,189.448 8.100 C 189.014 8.925,188.423 9.600,188.135 9.600 C 187.846 9.600,187.156 10.320,186.600 11.200 C 186.044 12.080,185.413 12.800,185.198 12.800 C 184.698 12.800,180.000 17.408,180.000 17.898 C 180.000 18.315,178.828 18.934,176.840 19.567 C 175.884 19.871,152.597 20.000,98.402 20.000 L 21.324 20.000 20.562 20.842 C 19.820 21.662,19.795 23.696,19.600 99.942 C 19.383 184.692,19.527 179.630,17.318 180.185 C 16.813 180.312,16.400 180.614,16.400 180.857 C 16.400 181.235,15.048 182.746,11.892 185.894 C 9.423 188.357,8.020 189.540,7.295 189.770 C 6.839 189.914,6.279 190.572,6.049 191.232 C 5.774 192.022,5.212 192.577,4.403 192.859 C 3.589 193.143,2.983 193.745,2.608 194.644 C 2.173 195.683,1.802 196.000,1.020 196.000 C 0.267 196.000,0.000 196.209,0.000 196.800 C 0.000 198.140,1.786 197.828,2.858 196.300 C 3.926 194.777,8.267 190.400,8.709 190.400 C 9.518 190.400,19.772 179.564,20.668 177.763 C 22.920 173.234,22.800 177.725,22.800 97.795 C 22.800 25.273,22.813 24.021,23.574 23.614 C 24.099 23.333,48.026 23.198,98.074 23.195 C 175.834 23.190,174.752 23.214,176.740 21.474 C 177.103 21.156,177.961 20.613,178.647 20.266 C 179.976 19.593,190.400 9.377,190.400 8.747 C 190.400 8.165,195.323 3.481,196.736 2.719 C 198.250 1.902,198.574 0.000,197.200 0.000 C 196.623 0.000,196.400 0.267,196.400 0.957 M204.400 0.900 C 204.401 1.573,204.931 2.091,206.500 2.951 C 208.667 4.139,210.109 5.536,212.767 9.021 C 215.433 12.517,222.656 19.314,225.315 20.830 C 229.709 23.336,225.124 23.200,305.334 23.200 C 372.243 23.200,379.137 23.259,379.357 23.833 C 379.491 24.181,379.603 57.616,379.606 98.133 C 379.613 178.217,379.519 174.841,381.839 177.891 C 384.132 180.903,398.518 195.200,399.257 195.200 C 399.783 195.200,400.000 194.908,400.000 194.200 C 400.000 193.398,399.800 193.200,398.994 193.200 C 398.328 193.200,397.754 192.825,397.294 192.091 C 396.912 191.480,395.555 189.995,394.277 188.791 C 393.000 187.586,390.930 185.531,389.677 184.224 C 388.425 182.917,386.746 181.207,385.946 180.424 C 385.147 179.641,384.263 178.553,383.983 178.008 C 383.702 177.462,383.052 176.684,382.536 176.279 L 381.600 175.542 381.600 99.431 C 381.600 47.316,381.468 22.940,381.180 22.115 C 380.406 19.895,384.286 20.000,303.343 20.000 C 221.409 20.000,224.540 20.083,223.085 17.881 C 222.446 16.914,219.733 14.152,216.241 10.913 C 215.003 9.765,213.816 8.368,213.603 7.808 C 213.390 7.248,212.758 6.582,212.198 6.327 C 211.144 5.846,210.543 4.446,210.944 3.401 C 211.149 2.869,221.972 2.800,305.587 2.800 L 400.000 2.800 400.000 1.400 L 400.000 0.000 305.200 0.000 L 210.400 0.000 210.400 1.192 C 210.400 2.118,210.185 2.439,209.437 2.626 C 208.077 2.968,206.800 2.174,206.800 0.986 C 206.800 0.157,206.609 0.000,205.600 0.000 C 204.622 0.000,204.400 0.167,204.400 0.900 M200.200 27.148 C 198.977 27.908,194.554 32.472,191.968 35.643 C 189.515 38.651,189.600 36.690,189.600 90.317 C 189.600 125.267,189.472 139.848,189.157 140.752 C 188.591 142.374,187.342 143.004,182.998 143.857 C 180.871 144.275,178.934 144.928,178.061 145.520 C 177.270 146.057,175.719 146.764,174.614 147.092 C 173.508 147.421,171.986 148.232,171.231 148.895 C 170.476 149.558,169.256 150.352,168.520 150.659 C 167.784 150.967,166.835 151.565,166.412 151.988 C 165.989 152.411,165.135 153.020,164.515 153.340 C 161.684 154.804,152.009 165.287,150.708 168.299 C 150.447 168.905,149.651 170.064,148.939 170.876 C 148.227 171.688,147.378 173.253,147.051 174.354 C 146.724 175.456,146.066 176.885,145.588 177.530 C 145.111 178.176,144.377 180.211,143.957 182.052 C 142.951 186.467,142.093 188.332,140.747 189.028 C 139.804 189.515,132.364 189.600,90.639 189.600 C 39.195 189.600,37.892 189.642,36.600 191.322 C 36.380 191.609,35.390 192.399,34.400 193.079 C 32.422 194.437,27.190 199.701,26.473 201.054 C 25.746 202.427,32.195 209.775,34.868 210.621 C 35.381 210.783,36.241 211.204,36.781 211.558 C 39.211 213.149,39.704 213.164,90.600 213.195 L 139.800 213.225 140.800 214.113 C 142.103 215.269,143.016 217.420,143.957 221.548 C 144.377 223.389,145.098 225.406,145.559 226.030 C 146.020 226.654,146.690 228.027,147.047 229.082 C 147.405 230.137,148.222 231.600,148.865 232.332 C 149.507 233.065,150.317 234.375,150.664 235.243 C 151.011 236.111,151.590 237.042,151.949 237.311 C 152.309 237.580,153.126 238.610,153.765 239.600 C 155.077 241.635,161.780 248.269,164.187 249.915 C 165.059 250.512,166.079 251.300,166.453 251.666 C 166.827 252.033,167.913 252.709,168.866 253.168 C 169.820 253.627,171.221 254.459,171.981 255.016 C 172.740 255.573,174.138 256.225,175.088 256.464 C 176.037 256.703,177.427 257.385,178.176 257.981 C 179.145 258.751,180.540 259.260,183.018 259.747 C 187.342 260.596,188.592 261.228,189.157 262.848 C 189.472 263.752,189.600 278.363,189.600 313.396 C 189.600 367.509,189.478 364.791,192.052 368.042 C 192.793 368.978,197.072 373.447,201.561 377.972 C 209.705 386.183,210.811 387.626,211.396 390.811 C 211.719 392.564,210.392 396.345,208.987 397.678 C 207.599 398.993,207.692 400.000,209.200 400.000 C 210.176 400.000,210.401 399.832,210.407 399.100 C 210.410 398.605,210.856 397.480,211.398 396.600 C 214.040 392.309,214.107 390.674,211.776 387.394 C 211.019 386.330,210.400 385.122,210.400 384.709 C 210.400 384.231,209.896 383.749,209.010 383.378 C 208.245 383.059,207.358 382.293,207.040 381.677 C 206.721 381.060,206.005 380.349,205.449 380.095 C 204.893 379.842,204.173 379.122,203.849 378.495 C 203.525 377.869,202.805 377.149,202.249 376.895 C 201.693 376.642,200.957 375.890,200.612 375.224 C 200.268 374.558,199.453 373.737,198.800 373.400 C 198.147 373.063,197.342 372.262,197.011 371.622 C 196.680 370.981,196.033 370.338,195.575 370.192 C 195.100 370.041,194.421 369.183,194.000 368.200 C 193.593 367.250,192.931 366.289,192.530 366.065 C 191.830 365.673,191.796 363.529,191.714 313.728 L 191.627 261.800 190.026 260.759 C 189.009 260.097,187.289 259.525,185.313 259.191 C 183.373 258.864,181.292 258.178,179.791 257.373 C 178.466 256.662,176.648 255.882,175.752 255.641 C 174.855 255.399,173.509 254.753,172.760 254.204 C 172.012 253.655,170.829 252.938,170.131 252.611 C 165.005 250.205,154.517 239.923,151.535 234.379 C 150.950 233.290,150.019 231.862,149.466 231.206 C 148.914 230.550,148.074 228.975,147.600 227.706 C 147.127 226.438,146.394 224.841,145.972 224.157 C 145.550 223.474,144.854 221.208,144.425 219.122 C 143.996 217.036,143.072 214.131,142.372 212.665 L 141.099 210.000 89.422 210.000 C 33.292 210.000,34.400 210.042,33.239 207.873 C 32.963 207.357,32.200 206.618,31.543 206.230 C 30.886 205.842,30.160 205.111,29.930 204.606 C 29.700 204.101,29.091 203.463,28.577 203.188 C 28.063 202.913,27.552 202.452,27.442 202.164 C 27.210 201.562,34.541 194.000,35.356 194.000 C 35.651 194.000,36.349 193.641,36.907 193.202 C 37.908 192.414,38.639 192.402,89.613 192.302 L 141.304 192.200 142.457 190.160 C 143.091 189.038,143.971 186.463,144.413 184.436 C 144.855 182.410,145.753 179.748,146.409 178.520 C 147.064 177.292,147.600 176.036,147.600 175.728 C 147.600 174.906,149.105 172.095,149.745 171.721 C 150.048 171.545,150.687 170.626,151.166 169.681 C 153.998 164.084,163.468 154.684,169.582 151.400 C 170.401 150.960,171.635 150.121,172.323 149.536 C 173.012 148.951,174.526 148.166,175.688 147.791 C 176.849 147.416,178.551 146.681,179.469 146.156 C 180.387 145.632,182.852 144.873,184.947 144.470 C 187.351 144.007,189.287 143.379,190.192 142.768 L 191.627 141.800 191.714 89.939 L 191.800 38.077 192.900 37.058 C 193.505 36.497,194.000 35.778,194.000 35.459 C 194.000 34.945,196.155 32.630,200.536 28.441 L 201.957 27.082 202.781 28.478 C 203.234 29.245,204.045 30.074,204.583 30.319 C 205.121 30.565,205.840 31.303,206.179 31.960 C 206.519 32.617,207.275 33.390,207.860 33.678 C 210.005 34.732,209.969 33.770,209.976 89.958 C 209.979 118.425,210.031 141.758,210.091 141.809 C 211.017 142.599,214.447 143.787,217.673 144.434 C 219.911 144.882,222.475 145.668,223.371 146.180 C 224.267 146.691,225.961 147.420,227.137 147.799 C 228.312 148.178,229.842 148.983,230.537 149.588 C 231.231 150.193,232.610 151.047,233.600 151.486 C 234.590 151.925,235.743 152.670,236.162 153.142 C 236.581 153.614,237.147 154.000,237.420 154.000 C 237.692 154.000,238.519 154.585,239.258 155.300 C 239.996 156.015,240.977 156.870,241.438 157.200 C 242.762 158.148,249.600 165.940,249.600 166.502 C 249.600 166.780,249.973 167.241,250.430 167.526 C 250.886 167.811,251.527 168.684,251.853 169.466 C 252.180 170.249,253.053 171.768,253.792 172.843 C 254.531 173.917,255.262 175.382,255.416 176.098 C 255.570 176.814,256.330 178.631,257.104 180.135 C 257.935 181.748,258.798 184.291,259.208 186.335 C 259.600 188.288,260.309 190.411,260.833 191.200 L 261.763 192.600 313.545 192.496 C 358.691 192.404,365.411 192.467,365.978 192.980 C 366.336 193.304,367.304 193.851,368.128 194.196 C 368.953 194.540,369.821 195.247,370.058 195.767 C 370.294 196.287,370.924 196.910,371.456 197.153 C 371.988 197.395,372.804 198.239,373.270 199.029 C 373.736 199.818,374.548 200.628,375.075 200.829 C 375.602 201.029,376.326 201.704,376.685 202.328 C 377.043 202.953,377.846 203.756,378.468 204.113 C 379.091 204.471,379.808 205.218,380.061 205.774 C 380.314 206.330,380.861 206.892,381.276 207.024 C 381.691 207.156,382.494 207.964,383.060 208.819 C 383.626 209.675,384.474 210.490,384.945 210.631 C 385.415 210.773,386.370 211.429,387.066 212.089 C 389.012 213.936,393.593 214.157,395.430 212.492 C 396.771 211.276,398.344 210.400,399.186 210.400 C 399.788 210.400,400.000 210.139,400.000 209.400 C 400.000 208.113,399.136 208.103,397.473 209.372 C 392.935 212.833,386.596 212.164,384.114 207.962 C 383.736 207.323,383.298 206.800,383.140 206.800 C 382.981 206.800,379.803 203.785,376.076 200.100 C 368.216 192.328,366.373 190.841,363.731 190.144 C 362.220 189.746,351.098 189.631,312.560 189.618 C 278.275 189.605,262.942 189.468,262.076 189.167 C 260.679 188.680,260.608 188.519,259.591 183.555 C 259.077 181.045,258.555 179.625,257.833 178.767 C 257.269 178.096,256.536 176.614,256.204 175.473 C 255.872 174.332,254.971 172.512,254.201 171.429 C 253.430 170.346,252.800 169.282,252.800 169.067 C 252.800 167.352,243.054 156.674,238.800 153.728 C 238.250 153.347,237.209 152.532,236.486 151.918 C 235.763 151.303,234.990 150.800,234.768 150.800 C 234.546 150.800,233.182 149.990,231.736 149.000 C 230.290 148.010,228.830 147.200,228.492 147.200 C 228.154 147.200,226.780 146.587,225.438 145.839 C 223.835 144.943,221.767 144.238,219.400 143.778 C 216.063 143.130,215.676 142.952,214.109 141.342 L 212.418 139.605 212.309 88.844 C 212.209 42.329,212.145 38.022,211.540 37.342 C 211.177 36.934,210.602 35.928,210.263 35.108 C 209.652 33.626,202.641 26.399,201.819 26.401 C 201.588 26.402,200.860 26.738,200.200 27.148 M193.910 160.819 C 192.431 160.991,190.243 161.580,189.048 162.127 C 187.853 162.674,185.897 163.406,184.702 163.753 C 183.507 164.101,181.825 164.948,180.965 165.635 C 180.104 166.323,178.964 167.054,178.430 167.260 C 176.643 167.948,170.765 173.378,168.689 176.258 C 168.077 177.106,166.864 178.782,165.993 179.983 C 165.122 181.184,164.124 183.074,163.777 184.183 C 163.429 185.292,162.696 187.124,162.149 188.253 C 159.729 193.239,159.645 210.321,162.018 214.912 C 162.448 215.743,163.171 217.527,163.626 218.876 C 164.080 220.225,165.048 222.065,165.777 222.964 C 166.506 223.864,167.235 225.031,167.397 225.558 C 167.857 227.057,176.539 235.514,178.503 236.376 C 179.436 236.786,180.814 237.585,181.565 238.151 C 182.315 238.717,183.919 239.469,185.129 239.820 C 186.339 240.172,188.173 240.901,189.205 241.441 C 193.994 243.945,209.063 243.805,214.200 241.208 C 215.520 240.541,217.338 239.816,218.240 239.598 C 219.141 239.380,220.491 238.753,221.240 238.204 C 221.988 237.655,223.230 236.889,224.000 236.503 C 227.582 234.705,234.385 227.889,236.280 224.200 C 236.845 223.100,237.713 221.716,238.208 221.123 C 238.704 220.531,239.338 219.091,239.618 217.923 C 240.112 215.859,240.625 214.567,241.849 212.300 C 243.571 209.113,243.302 193.966,241.461 190.445 C 240.927 189.422,240.103 187.291,239.632 185.709 C 239.161 184.127,238.356 182.330,237.843 181.716 C 237.329 181.102,236.544 179.880,236.097 179.000 C 235.651 178.120,234.906 177.057,234.443 176.638 C 233.979 176.219,233.600 175.690,233.600 175.464 C 233.600 174.707,225.737 167.600,224.899 167.600 C 224.704 167.600,223.570 166.873,222.378 165.984 C 221.187 165.095,219.220 164.082,218.006 163.733 C 216.793 163.383,214.968 162.679,213.950 162.168 C 210.787 160.577,201.403 159.945,193.910 160.819 M207.718 161.609 C 209.212 161.825,211.152 162.367,212.028 162.814 C 212.904 163.261,214.863 163.907,216.381 164.250 C 218.363 164.698,219.584 165.252,220.710 166.216 C 221.572 166.954,223.011 167.851,223.908 168.210 C 224.805 168.569,225.629 169.099,225.741 169.389 C 225.852 169.679,226.631 170.318,227.471 170.808 C 228.865 171.621,229.700 172.501,233.732 177.400 C 234.456 178.280,235.562 180.035,236.189 181.300 C 236.817 182.565,237.460 183.600,237.617 183.600 C 238.003 183.600,238.637 185.335,239.225 188.000 C 239.492 189.210,240.030 190.920,240.420 191.800 C 241.805 194.921,242.053 196.435,242.053 201.751 C 242.053 206.988,241.633 209.665,240.540 211.404 C 240.261 211.846,239.684 213.646,239.257 215.404 C 238.352 219.127,238.036 220.000,237.588 220.000 C 237.409 220.000,236.718 221.089,236.053 222.420 C 234.608 225.312,233.452 226.800,230.000 230.212 C 225.983 234.183,225.188 234.834,223.429 235.587 C 222.530 235.973,221.225 236.767,220.530 237.352 C 219.757 238.002,218.058 238.725,216.159 239.211 C 214.450 239.648,212.680 240.238,212.226 240.523 C 210.121 241.844,207.776 242.200,201.200 242.198 C 194.489 242.197,194.061 242.125,190.200 240.367 C 189.320 239.966,187.727 239.444,186.659 239.208 C 184.456 238.720,182.775 237.934,182.039 237.047 C 181.762 236.714,180.875 236.225,180.068 235.961 C 177.380 235.082,169.170 227.063,167.910 224.085 C 167.657 223.488,166.952 222.459,166.342 221.799 C 165.271 220.638,164.000 217.751,164.000 216.481 C 164.000 216.141,163.419 214.679,162.710 213.232 C 160.637 209.004,160.581 193.162,162.628 190.238 C 162.948 189.781,163.654 187.952,164.197 186.173 C 164.756 184.339,165.558 182.606,166.048 182.170 C 166.524 181.746,167.207 180.751,167.566 179.958 C 169.261 176.217,176.912 168.679,180.065 167.643 C 180.870 167.378,181.626 166.909,181.744 166.602 C 182.051 165.801,184.207 164.774,186.901 164.146 C 188.179 163.847,189.958 163.230,190.853 162.773 C 193.625 161.359,201.994 160.781,207.718 161.609 M203.300 174.443 C 202.585 174.652,202.000 174.974,202.000 175.159 C 202.000 175.557,199.625 176.215,196.000 176.823 C 194.570 177.063,192.623 177.690,191.673 178.216 C 190.723 178.743,188.887 179.471,187.592 179.834 C 181.176 181.635,183.636 184.830,190.950 184.195 C 196.538 183.710,198.062 183.796,198.671 184.630 C 199.424 185.659,199.451 221.397,198.700 221.863 C 198.425 222.033,195.590 222.278,192.400 222.408 C 184.858 222.714,184.017 223.118,184.006 226.438 C 183.994 229.929,183.213 229.783,202.592 229.916 L 219.500 230.032 220.770 228.964 C 221.900 228.013,222.026 227.697,221.920 226.088 C 221.722 223.109,220.735 222.648,213.977 222.386 C 210.915 222.267,208.236 221.996,208.024 221.784 C 207.788 221.548,207.592 212.651,207.519 198.928 C 207.380 172.665,207.476 173.223,203.300 174.443 M206.310 199.800 L 206.421 221.800 207.310 222.491 C 208.041 223.059,209.078 223.184,213.120 223.191 C 219.402 223.202,220.400 223.613,220.400 226.188 C 220.400 229.274,220.822 229.200,203.298 229.200 C 185.329 229.200,185.200 229.179,185.200 226.264 C 185.200 223.754,186.658 223.200,193.261 223.200 C 197.471 223.200,198.282 223.091,199.453 222.367 L 200.800 221.535 200.800 203.545 C 200.800 180.219,200.966 180.758,194.343 182.573 C 189.516 183.897,185.600 183.646,185.600 182.014 C 185.600 181.584,188.180 180.582,190.200 180.226 C 191.080 180.071,192.430 179.516,193.200 178.992 C 194.167 178.334,195.984 177.797,199.076 177.253 C 201.538 176.820,203.878 176.283,204.276 176.060 C 206.094 175.039,206.192 176.184,206.310 199.800 M0.000 206.573 C 0.000 206.977,0.360 207.200,1.010 207.200 C 1.750 207.200,2.124 207.493,2.410 208.300 C 3.049 210.104,3.426 210.570,4.438 210.808 C 4.967 210.932,5.643 211.538,5.940 212.154 C 6.237 212.771,7.096 213.532,7.853 213.848 C 8.609 214.164,9.416 214.837,9.648 215.345 C 9.879 215.853,10.582 216.571,11.210 216.942 C 11.838 217.313,12.467 217.980,12.607 218.423 C 12.748 218.867,13.569 219.676,14.432 220.220 C 15.294 220.765,16.000 221.463,16.000 221.772 C 16.000 222.082,16.612 222.713,17.360 223.175 C 18.108 223.638,18.866 224.328,19.045 224.708 C 19.223 225.089,19.526 259.870,19.719 302.000 L 20.070 378.600 21.044 379.600 L 22.018 380.600 54.709 380.894 C 72.689 381.055,107.252 381.325,131.515 381.494 C 177.174 381.811,176.354 381.779,176.394 383.220 C 176.397 383.341,177.210 383.834,178.200 384.315 C 179.190 384.796,180.000 385.458,180.000 385.786 C 180.000 386.113,180.494 386.701,181.099 387.091 C 182.516 388.005,185.995 391.484,186.909 392.901 C 187.299 393.506,187.882 394.000,188.204 394.000 C 188.526 394.000,189.244 394.720,189.800 395.600 C 190.356 396.480,191.050 397.200,191.343 397.200 C 192.063 397.200,193.200 398.505,193.200 399.331 C 193.200 399.699,193.470 400.000,193.800 400.000 C 195.956 400.000,187.348 390.366,178.333 382.690 C 174.413 379.352,180.861 379.600,98.057 379.600 C 39.865 379.600,24.418 379.496,23.907 379.100 C 23.319 378.644,23.237 372.075,22.987 305.200 C 22.691 225.819,22.822 230.028,20.497 225.554 C 19.287 223.225,11.760 215.438,6.817 211.400 C 5.470 210.300,3.875 208.680,3.272 207.800 C 2.102 206.093,0.000 205.305,0.000 206.573 M260.641 212.100 C 260.081 213.255,259.419 215.535,259.170 217.166 C 258.878 219.081,258.255 220.995,257.411 222.566 C 256.692 223.905,255.814 226.003,255.461 227.230 C 255.108 228.456,254.471 229.774,254.046 230.158 C 253.622 230.543,252.898 231.730,252.439 232.798 C 251.980 233.865,251.190 235.067,250.683 235.469 C 248.944 236.850,249.149 237.207,250.974 235.976 C 251.978 235.298,252.800 234.596,252.800 234.417 C 252.800 234.237,253.423 233.184,254.185 232.076 C 254.947 230.968,255.952 228.923,256.418 227.531 C 256.884 226.139,257.647 224.590,258.114 224.088 C 258.689 223.470,259.227 221.863,259.783 219.103 C 260.549 215.301,260.693 214.969,261.961 214.115 L 263.318 213.200 321.216 213.200 C 373.643 213.200,379.137 213.260,379.357 213.833 C 379.491 214.181,379.600 247.671,379.600 288.256 C 379.600 343.111,379.720 362.527,380.066 363.923 C 380.793 366.847,381.753 368.046,390.299 376.700 C 398.222 384.722,400.000 386.061,400.000 384.000 C 400.000 383.520,399.733 383.200,399.333 383.200 C 398.966 383.200,397.301 381.796,395.633 380.080 C 393.965 378.364,392.105 376.650,391.500 376.271 C 390.895 375.892,390.400 375.388,390.400 375.152 C 390.400 374.917,389.073 373.436,387.451 371.862 C 385.829 370.288,384.271 368.553,383.988 368.008 C 383.705 367.462,383.052 366.684,382.536 366.279 L 381.600 365.542 381.600 289.758 C 381.600 208.367,381.689 212.067,379.696 210.554 C 379.127 210.122,368.308 210.023,320.329 210.013 L 261.659 210.000 260.641 212.100 M235.703 250.451 C 235.096 251.138,233.880 252.041,233.000 252.457 C 232.120 252.872,230.788 253.660,230.040 254.207 C 229.291 254.754,227.988 255.388,227.143 255.615 C 226.298 255.843,224.390 256.639,222.903 257.385 C 221.342 258.168,218.825 258.993,216.945 259.340 C 215.155 259.669,212.855 260.363,211.834 260.882 L 209.979 261.825 209.995 320.542 C 210.008 372.152,210.084 379.401,210.615 380.430 L 211.221 381.600 285.910 381.603 C 363.663 381.606,365.831 381.639,366.206 382.820 C 366.329 383.208,367.137 383.808,368.000 384.153 C 368.930 384.525,369.808 385.243,370.155 385.913 C 370.477 386.535,371.195 387.251,371.751 387.505 C 372.307 387.758,373.032 388.488,373.362 389.126 C 373.692 389.765,374.495 390.508,375.147 390.778 C 375.798 391.048,376.531 391.748,376.774 392.334 C 377.018 392.920,377.753 393.707,378.409 394.081 C 379.064 394.456,379.790 395.178,380.021 395.686 C 380.252 396.194,380.972 396.914,381.621 397.286 C 382.441 397.756,382.800 398.273,382.800 398.981 C 382.800 399.801,382.995 400.000,383.800 400.000 C 384.481 400.000,384.800 399.779,384.800 399.309 C 384.800 398.644,368.919 382.620,367.039 381.389 C 364.243 379.557,366.155 379.600,287.754 379.600 C 237.642 379.600,213.699 379.467,213.174 379.186 C 212.414 378.779,212.400 377.712,212.400 321.333 L 212.400 263.895 214.100 262.213 C 215.653 260.676,216.112 260.470,219.400 259.835 C 221.633 259.404,223.539 258.773,224.418 258.173 C 225.198 257.640,226.986 256.754,228.391 256.203 C 229.796 255.653,231.318 254.878,231.773 254.483 C 232.228 254.087,233.107 253.510,233.727 253.200 C 234.347 252.890,235.376 251.863,236.014 250.918 C 237.379 248.894,237.249 248.698,235.703 250.451 M0.000 353.400 L 0.000 400.000 1.400 400.000 L 2.800 400.000 2.798 354.900 C 2.795 307.147,2.782 306.800,0.981 306.800 L 0.000 306.800 0.000 353.400 M398.267 398.267 C 397.586 398.947,398.031 400.000,399.000 400.000 C 399.800 400.000,400.000 399.800,400.000 399.000 C 400.000 398.031,398.947 397.586,398.267 398.267 " stroke="none" fill="#444444" fill-rule="evenodd"></path></g></svg>