<?xml version="1.0" encoding="UTF-8"?>
<svg viewBox="0 0 744.09447 1052.362179" xmlns="http://www.w3.org/2000/svg" xmlns:xlink="http://www.w3.org/1999/xlink">
    <path d="m35.438 24.812v602.34h35.438v-35.438h35.438v-35.406h-35.438v-460.66h35.438v-35.406h-35.438v-35.438h-35.438zm70.875 70.844v35.438h35.406v-35.438h-35.406zm35.406 35.438v35.438h35.438v-35.438h-35.438zm35.438 35.438v35.438h35.438v-35.438h-35.438zm35.438 35.438v35.438h35.438v-35.438h-35.438zm35.438 35.438v35.438h35.438v-35.438h-35.438zm35.438 35.438v35.438h35.438v-35.438h-35.438zm35.438 35.438v35.406h35.438v-35.406h-35.438zm35.438 35.406v35.438h35.406v-35.438h-35.406zm35.406 35.438v35.438h-106.28v106.31h35.438v-70.875h141.72v-35.438h-35.438v-35.438h-35.438zm-70.844 141.75v70.844h35.438v-70.844h-35.438zm35.438 70.844v70.875h35.406v-70.875h-35.406zm35.406 70.875v70.875h35.438v-70.875h-35.438zm0 70.875h-70.844v35.438h70.844v-35.438zm-70.844 0v-70.875h-35.438v70.875h35.438zm-35.438-70.875v-70.875h-35.438v70.875h35.438zm-35.438-70.875v-70.844h-35.438v70.844h35.438zm-35.438-70.844v-70.875h-35.438v35.438h-35.438v35.438h70.875zm-70.875 0h-35.406v35.438h35.406v-35.438z" fill-rule="evenodd"/>
    <path d="m70.875 95.656v460.66h35.438v-35.438h35.406v-35.438h35.438v-35.438h35.438v70.875h35.438v70.844h35.438v70.875h35.438v70.875h70.844v-70.875h-35.406v-70.875h-35.438v-70.844h-35.438v-106.31h106.28v-35.438h-35.406v-35.438h-35.438v-35.406h-35.438v-35.438h-35.438v-35.438h-35.438v-35.438h-35.438v-35.438h-35.438v-35.438h-35.406v-35.438h-35.438z" fill="purple"/>
</svg>
